<svg width="557" height="4011" viewBox="0 0 557 4011" fill="none" xmlns="http://www.w3.org/2000/svg">
<path fill-rule="evenodd" clip-rule="evenodd" d="M437.5 639.365V0H440.5V640V640.635L440.044 641.077L343.499 734.636L340.5 1187.49L340.5 1187.51L339 1187.5L337.5 1187.49L340.5 733.99L340.504 733.361L340.956 732.923L437.5 639.365ZM477.5 662.397V0H480.5V663V663.603L480.082 664.038L433.082 713.038L433.062 713.06L433.04 713.081L380.5 763.638V1187.5H377.5V763V762.362L377.96 761.919L430.938 710.94L477.5 662.397ZM517.5 690.379V0H520.5V691V691.621L520.061 692.061L510.061 702.061L498.061 714.061L485.061 727.061L473.061 739.061L463.061 749.061L453.061 759.061L433.061 779.061L426.061 786.061L420.5 791.621V981V1187.5H417.5V981V791V790.379L417.939 789.939L423.939 783.939L430.939 776.939L450.939 756.939L460.939 746.939L470.939 736.939L482.939 724.939L495.939 711.939L507.939 699.939L517.5 690.379Z" fill="black"/>
<path d="M37 402L307 665V1179M37 452L276.5 690.274V1179M37 502L244.5 715.731V1179M37 552L213.5 740.17V1179" stroke="black" stroke-width="3"/>
<g filter="url(#filter0_d_533_875)">
<path d="M438 0.136711V639.5L390 686L341 733.5L338 1179M478 0V662.5L429 714L378 762.635V1179M518 0V690.5L470 739L418 790.586V1179" stroke="url(#paint0_linear_533_875)" stroke-width="0.5"/>
</g>
<g filter="url(#filter1_d_533_875)">
<path d="M37.5 401.5L230 588L307.801 664.743L308 1179M37.5 451.5L197 610L277.266 689.703L277 1179M37.5 501.5L245.271 715.385V1179M37.5 551.5L214.259 739.91V1179" stroke="url(#paint1_linear_533_875)" stroke-width="0.5"/>
</g>
<path fill-rule="evenodd" clip-rule="evenodd" d="M215.499 1692.35L539.024 1994.9L536.975 1997.1L212.975 1694.1L212.501 1693.65L212.5 1693L212 1179L215 1179L215.499 1692.35ZM246 1667.08L539.032 1944.91L536.968 1947.09L243.468 1668.82L243 1668.37V1667.73L243 1179H246L246 1667.08ZM278 1641.64L539.044 1894.92L536.955 1897.08L275.455 1643.35L275 1642.9V1642.27L275 1179H278L278 1641.64ZM423.805 1730.85L539.055 1844.93L536.945 1847.07L421.695 1732.98L306.445 1618.9L306.001 1618.46L306 1617.83L305.5 1179L308.5 1179L308.999 1617.2L423.805 1730.85Z" fill="black"/>
<g filter="url(#filter2_d_533_875)">
<path d="M537.5 1997.5L416 1884L293 1769L213.199 1694.26L213 1180M537.5 1947.5L326 1747L243.734 1669.3L244 1180M537.5 1897.5L275.729 1643.62L275.729 1180M537.5 1847.5L306.741 1619.09L306.741 1180" stroke="url(#paint2_linear_533_875)" stroke-width="0.5"/>
</g>
<path d="M199 2136L200.019 2137.1L200.5 2136.66V2136H199ZM191 1976C191 1980.42 194.581 1984 199 1984C203.418 1984 207 1980.42 207 1976C207 1971.58 203.418 1968 199 1968C194.581 1968 191 1971.58 191 1976ZM37.0194 2288.1L200.019 2137.1L197.98 2134.9L34.9806 2285.9L37.0194 2288.1ZM200.5 2136V1976H197.5V2136H200.5Z" fill="black"/>
<path d="M36 2286L198 2135.5V1984" stroke="url(#paint3_linear_533_875)" stroke-width="0.5"/>
<path d="M158.5 2110.5L159.51 2111.61L160 2111.16V2110.5H158.5ZM150.5 1956C150.5 1960.42 154.082 1964 158.5 1964C162.918 1964 166.5 1960.42 166.5 1956C166.5 1951.58 162.918 1948 158.5 1948C154.082 1948 150.5 1951.58 150.5 1956ZM37.0097 2223.11L159.51 2111.61L157.49 2109.39L34.9903 2220.89L37.0097 2223.11ZM160 2110.5V1956H157V2110.5H160Z" fill="black"/>
<path d="M35.5 2221.5L158 2110.25V1959" stroke="url(#paint4_linear_533_875)" stroke-width="0.5"/>
<path d="M36 2475L319 2206L319 1726L419 1632L419 1187M36 2415L279 2185.5L279 1703L326 1654L379 1603L379 1187M36 2355L239 2165L239 1675L249 1665L261 1653L274 1640L286 1628L296 1618L306 1608L326 1588L333 1581L339 1575L339 1385L339 1187" stroke="black" stroke-width="3"/>
<g filter="url(#filter3_d_533_875)">
<path d="M35.5 2474.5L318.5 2206L318.5 1725.5L367 1680L418.5 1631.5L418.5 1187M35.5 2414.5L278.5 2185L278.5 1703.5L328 1652L379 1603.36L379 1187M36.5 2355.5L239.5 2165L239.5 1675.39L287 1627L339 1575.41L339 1187" stroke="url(#paint5_linear_533_875)" stroke-width="0.5"/>
</g>
<path fill-rule="evenodd" clip-rule="evenodd" d="M342.539 3012.09L19.0311 2718.77L21.0462 2716.55L345.046 3010.32L345.539 3010.76V3011.43V3748.03L532.951 3891.56L531.127 3893.94L343.127 3749.96L342.539 3749.51V3748.77V3012.09ZM312.039 3036.59L19.0235 2767.24L21.0538 2765.03L314.554 3034.83L315.039 3035.27V3035.93V3765.47L532.944 3930.33L531.134 3932.72L312.634 3767.42L312.039 3766.97V3766.22V3036.59ZM280.039 3061.26L19.0109 2815.7L21.0664 2813.52L282.566 3059.52L283.039 3059.97V3060.61V3782.92L532.935 3969.11L531.142 3971.51L280.642 3784.88L280.039 3784.43V3783.67V3061.26ZM134.25 2974.78L19 2864.17L21.0773 2862.01L136.327 2972.62L251.577 3083.23L252.039 3083.67V3084.31V3797.95L532.937 4007.89L531.141 4010.29L249.641 3799.9L249.039 3799.45V3798.7V3084.95L134.25 2974.78Z" fill="black"/>
<g filter="url(#filter4_d_533_875)">
<path d="M20.0386 2717.66L141.539 2827.7L264.539 2939.2L344.34 3011.66V3747.31M20.0386 2766.13L231.539 2960.53L313.804 3035.86V3768.16M20.0386 2814.61L281.81 3060.76V3781.25M20.0386 2863.09L250.798 3084.54V3795.79" stroke="url(#paint6_linear_533_875)" stroke-width="0.5"/>
</g>
<path d="M359.039 2581.92L358.034 2580.81L357.539 2581.25V2581.92H359.039ZM367.039 2737.05C367.039 2732.63 363.457 2729.05 359.039 2729.05C354.62 2729.05 351.039 2732.63 351.039 2737.05C351.039 2741.47 354.62 2745.05 359.039 2745.05C363.457 2745.05 367.039 2741.47 367.039 2737.05ZM532.033 2423.74L358.034 2580.81L360.044 2583.03L534.044 2425.97L532.033 2423.74ZM357.539 2581.92L357.539 2737.05H360.539L360.539 2581.92H357.539Z" fill="black"/>
<path d="M533.539 2425.34L360.039 2582.4V2729.29" stroke="url(#paint7_linear_533_875)" stroke-width="0.5"/>
<path d="M399.539 2606.64L398.551 2605.51L398.039 2605.96V2606.64H399.539ZM407.539 2816.07C407.539 2811.65 403.957 2808.07 399.539 2808.07C395.121 2808.07 391.539 2811.65 391.539 2816.07C391.539 2820.48 395.121 2824.07 399.539 2824.07C403.957 2824.07 407.539 2820.48 407.539 2816.07ZM532.051 2488.68L398.551 2605.51L400.527 2607.77L534.026 2490.94L532.051 2488.68ZM398.039 2606.64L398.039 2816.07H401.039L401.039 2606.64H398.039Z" fill="black"/>
<path d="M533.539 2490.3L400.039 2606.88L400.039 2807.82" stroke="url(#paint8_linear_533_875)" stroke-width="0.5"/>
<path d="M525.039 2261C525.039 2265.42 528.62 2269 533.039 2269C537.457 2269 541.039 2265.42 541.039 2261C541.039 2256.58 537.457 2253 533.039 2253C528.62 2253 525.039 2256.58 525.039 2261ZM239.039 2979.43L240.049 2980.54L240.539 2980.1V2979.43H239.039ZM139.039 3070.57L138.028 3069.46L137.539 3069.91V3070.57H139.039ZM95.0386 3552.44C95.0386 3556.85 98.6203 3560.44 103.039 3560.44C107.457 3560.44 111.039 3556.85 111.039 3552.44C111.039 3548.02 107.457 3544.44 103.039 3544.44C98.6203 3544.44 95.0386 3548.02 95.0386 3552.44ZM525.039 2309.48C525.039 2313.9 528.62 2317.48 533.039 2317.48C537.457 2317.48 541.039 2313.9 541.039 2309.48C541.039 2305.06 537.457 2301.48 533.039 2301.48C528.62 2301.48 525.039 2305.06 525.039 2309.48ZM279.039 3001.73L280.105 3002.79L280.539 3002.35V3001.73H279.039ZM179.039 3098.69L178.015 3097.59L177.539 3098.04V3098.69H179.039ZM95.0386 3612.55C95.0386 3616.97 98.6203 3620.55 103.039 3620.55C107.457 3620.55 111.039 3616.97 111.039 3612.55C111.039 3608.13 107.457 3604.55 103.039 3604.55C98.6203 3604.55 95.0386 3608.13 95.0386 3612.55ZM525.039 2360.86C525.039 2365.28 528.62 2368.86 533.039 2368.86C537.457 2368.86 541.039 2365.28 541.039 2360.86C541.039 2356.44 537.457 2352.86 533.039 2352.86C528.62 2352.86 525.039 2356.44 525.039 2360.86ZM319.039 3028.88L320.083 3029.96L320.539 3029.52V3028.88H319.039ZM219.039 3125.84L217.995 3124.76L217.539 3125.2V3125.84H219.039ZM95.0386 3672.66C95.0386 3677.08 98.6203 3680.66 103.039 3680.66C107.457 3680.66 111.039 3677.08 111.039 3672.66C111.039 3668.24 107.457 3664.66 103.039 3664.66C98.6203 3664.66 95.0386 3668.24 95.0386 3672.66ZM272.039 3074.45L270.995 3073.37H270.995L272.039 3074.45ZM219.039 3502.02L220.279 3502.86L220.539 3502.48V3502.02H219.039ZM232.039 3049.24L233.062 3050.34L233.084 3050.32L233.105 3050.3L232.039 3049.24ZM232.039 3113.23L230.995 3112.15L232.039 3113.23ZM225.039 3120.02L226.083 3121.09L225.039 3120.02ZM252.039 3093.84L250.995 3092.76L252.039 3093.84ZM262.039 3084.14L263.083 3085.22H263.083L262.039 3084.14ZM297.039 3050.21L295.995 3049.13H295.995L297.039 3050.21ZM284.039 3062.81L285.083 3063.89H285.083L284.039 3062.81ZM309.039 3038.58L310.083 3039.65H310.083L309.039 3038.58ZM319.039 2553.8L318.034 2552.69L317.539 2553.14V2553.8H319.039ZM279.039 2533.93L278.045 2532.8L277.539 2533.25V2533.93H279.039ZM239.039 2514.05L238.06 2512.91L237.539 2513.36V2514.05H239.039ZM179.039 3502.02L180.275 3502.87L180.539 3502.49V3502.02H179.039ZM139.039 3502.02L140.259 3502.89L140.539 3502.5V3502.02H139.039ZM238.028 2978.33L138.028 3069.46L140.049 3071.68L240.049 2980.54L238.028 2978.33ZM217.539 3125.84V3502.02H220.539V3125.84H217.539ZM217.798 3501.18L101.798 3671.82L104.279 3673.5L220.279 3502.86L217.798 3501.18ZM277.972 3000.68L230.972 3048.19L233.105 3050.3L280.105 3002.79L277.972 3000.68ZM231.015 3048.14L178.015 3097.59L180.062 3099.78L233.062 3050.34L231.015 3048.14ZM230.995 3112.15L223.995 3118.94L226.083 3121.09L233.083 3114.31L230.995 3112.15ZM223.995 3118.94L217.995 3124.76L220.083 3126.91L226.083 3121.09L223.995 3118.94ZM250.995 3092.76L230.995 3112.15L233.083 3114.31L253.083 3094.92L250.995 3092.76ZM270.995 3073.37L260.995 3083.07L263.083 3085.22L273.083 3075.53L270.995 3073.37ZM260.995 3083.07L250.995 3092.76L253.083 3094.92L263.083 3085.22L260.995 3083.07ZM295.995 3049.13L282.995 3061.74L285.083 3063.89L298.083 3051.29L295.995 3049.13ZM282.995 3061.74L270.995 3073.37L273.083 3075.53L285.083 3063.89L282.995 3061.74ZM317.994 3027.8L307.995 3037.5L310.083 3039.65L320.083 3029.96L317.994 3027.8ZM307.995 3037.5L295.995 3049.13L298.083 3051.29L310.083 3039.65L307.995 3037.5ZM532.034 2359.75L318.034 2552.69L320.043 2554.92L534.043 2361.98L532.034 2359.75ZM317.539 2553.8V3028.88H320.539V2553.8H317.539ZM532.045 2308.35L278.045 2532.8L280.032 2535.05L534.032 2310.6L532.045 2308.35ZM277.539 2533.93V3001.73H280.539V2533.93H277.539ZM532.06 2259.86L238.06 2512.91L240.017 2515.19L534.017 2262.14L532.06 2259.86ZM237.539 2514.05V2979.43H240.539V2514.05H237.539ZM177.539 3098.69V3502.02H180.539V3098.69H177.539ZM177.803 3501.17L101.803 3611.7L104.275 3613.4L180.275 3502.87L177.803 3501.17ZM137.539 3070.57V3502.02H140.539V3070.57H137.539ZM137.818 3501.15L101.818 3551.56L104.259 3553.31L140.259 3502.89L137.818 3501.15Z" fill="black"/>
<g filter="url(#filter5_d_533_875)">
<path d="M533.538 2261.48L239.539 2514.05V2979.92L191.039 3024.03L139.539 3071.06L139.539 3502.02M533.538 2309.96L279.539 2534.41V3001.25L230.039 3051.18L179.039 3098.33V3502.02M532.538 2360.38L318.539 2553.8V3028.51L271.039 3075.42L219.039 3125.43V3502.02" stroke="url(#paint9_linear_533_875)" stroke-width="0.5"/>
</g>
<defs>
<filter id="filter0_d_533_875" x="337.75" y="0" width="199.4" height="1192.9" filterUnits="userSpaceOnUse" color-interpolation-filters="sRGB">
<feFlood flood-opacity="0" result="BackgroundImageFix"/>
<feColorMatrix in="SourceAlpha" type="matrix" values="0 0 0 0 0 0 0 0 0 0 0 0 0 0 0 0 0 0 127 0" result="hardAlpha"/>
<feOffset dx="12" dy="7"/>
<feGaussianBlur stdDeviation="3.45"/>
<feComposite in2="hardAlpha" operator="out"/>
<feColorMatrix type="matrix" values="0 0 0 0 0 0 0 0 0 0 0 0 0 0 0 0 0 0 0.3 0"/>
<feBlend mode="normal" in2="BackgroundImageFix" result="effect1_dropShadow_533_875"/>
<feBlend mode="normal" in="SourceGraphic" in2="effect1_dropShadow_533_875" result="shape"/>
</filter>
<filter id="filter1_d_533_875" x="37.3179" y="401.321" width="289.832" height="791.58" filterUnits="userSpaceOnUse" color-interpolation-filters="sRGB">
<feFlood flood-opacity="0" result="BackgroundImageFix"/>
<feColorMatrix in="SourceAlpha" type="matrix" values="0 0 0 0 0 0 0 0 0 0 0 0 0 0 0 0 0 0 127 0" result="hardAlpha"/>
<feOffset dx="12" dy="7"/>
<feGaussianBlur stdDeviation="3.45"/>
<feComposite in2="hardAlpha" operator="out"/>
<feColorMatrix type="matrix" values="0 0 0 0 0 0 0 0 0 0 0 0 0 0 0 0 0 0 0.3 0"/>
<feBlend mode="normal" in2="BackgroundImageFix" result="effect1_dropShadow_533_875"/>
<feBlend mode="normal" in="SourceGraphic" in2="effect1_dropShadow_533_875" result="shape"/>
</filter>
<filter id="filter2_d_533_875" x="212.75" y="1180" width="343.826" height="831.583" filterUnits="userSpaceOnUse" color-interpolation-filters="sRGB">
<feFlood flood-opacity="0" result="BackgroundImageFix"/>
<feColorMatrix in="SourceAlpha" type="matrix" values="0 0 0 0 0 0 0 0 0 0 0 0 0 0 0 0 0 0 127 0" result="hardAlpha"/>
<feOffset dx="12" dy="7"/>
<feGaussianBlur stdDeviation="3.45"/>
<feComposite in2="hardAlpha" operator="out"/>
<feColorMatrix type="matrix" values="0 0 0 0 0 0 0 0 0 0 0 0 0 0 0 0 0 0 0.3 0"/>
<feBlend mode="normal" in2="BackgroundImageFix" result="effect1_dropShadow_533_875"/>
<feBlend mode="normal" in="SourceGraphic" in2="effect1_dropShadow_533_875" result="shape"/>
</filter>
<filter id="filter3_d_533_875" x="35.3281" y="1187" width="402.322" height="1301.58" filterUnits="userSpaceOnUse" color-interpolation-filters="sRGB">
<feFlood flood-opacity="0" result="BackgroundImageFix"/>
<feColorMatrix in="SourceAlpha" type="matrix" values="0 0 0 0 0 0 0 0 0 0 0 0 0 0 0 0 0 0 127 0" result="hardAlpha"/>
<feOffset dx="12" dy="7"/>
<feGaussianBlur stdDeviation="3.45"/>
<feComposite in2="hardAlpha" operator="out"/>
<feColorMatrix type="matrix" values="0 0 0 0 0 0 0 0 0 0 0 0 0 0 0 0 0 0 0.3 0"/>
<feBlend mode="normal" in2="BackgroundImageFix" result="effect1_dropShadow_533_875"/>
<feBlend mode="normal" in="SourceGraphic" in2="effect1_dropShadow_533_875" result="shape"/>
</filter>
<filter id="filter4_d_533_875" x="19.8652" y="2717.47" width="343.625" height="1092.22" filterUnits="userSpaceOnUse" color-interpolation-filters="sRGB">
<feFlood flood-opacity="0" result="BackgroundImageFix"/>
<feColorMatrix in="SourceAlpha" type="matrix" values="0 0 0 0 0 0 0 0 0 0 0 0 0 0 0 0 0 0 127 0" result="hardAlpha"/>
<feOffset dx="12" dy="7"/>
<feGaussianBlur stdDeviation="3.45"/>
<feComposite in2="hardAlpha" operator="out"/>
<feColorMatrix type="matrix" values="0 0 0 0 0 0 0 0 0 0 0 0 0 0 0 0 0 0 0.3 0"/>
<feBlend mode="normal" in2="BackgroundImageFix" result="effect1_dropShadow_533_875"/>
<feBlend mode="normal" in="SourceGraphic" in2="effect1_dropShadow_533_875" result="shape"/>
</filter>
<filter id="filter5_d_533_875" x="139.289" y="2261.3" width="413.316" height="1254.62" filterUnits="userSpaceOnUse" color-interpolation-filters="sRGB">
<feFlood flood-opacity="0" result="BackgroundImageFix"/>
<feColorMatrix in="SourceAlpha" type="matrix" values="0 0 0 0 0 0 0 0 0 0 0 0 0 0 0 0 0 0 127 0" result="hardAlpha"/>
<feOffset dx="12" dy="7"/>
<feGaussianBlur stdDeviation="3.45"/>
<feComposite in2="hardAlpha" operator="out"/>
<feColorMatrix type="matrix" values="0 0 0 0 0 0 0 0 0 0 0 0 0 0 0 0 0 0 0.3 0"/>
<feBlend mode="normal" in2="BackgroundImageFix" result="effect1_dropShadow_533_875"/>
<feBlend mode="normal" in="SourceGraphic" in2="effect1_dropShadow_533_875" result="shape"/>
</filter>
<linearGradient id="paint0_linear_533_875" x1="435" y1="20.5919" x2="429.955" y2="1160" gradientUnits="userSpaceOnUse">
<stop offset="0.0539996"/>
<stop offset="0.204" stop-color="#135877"/>
<stop offset="0.395" stop-color="#23A4DD"/>
<stop offset="0.5" stop-color="white"/>
<stop offset="0.575" stop-color="#135877"/>
<stop offset="0.924"/>
</linearGradient>
<linearGradient id="paint1_linear_533_875" x1="178.253" y1="514" x2="348.023" y2="1242.54" gradientUnits="userSpaceOnUse">
<stop offset="0.0539996"/>
<stop offset="0.204" stop-color="#135877"/>
<stop offset="0.395" stop-color="#23A4DD"/>
<stop offset="0.608107" stop-color="white"/>
<stop offset="0.835419" stop-color="#135877"/>
<stop offset="0.924"/>
</linearGradient>
<linearGradient id="paint2_linear_533_875" x1="342.747" y1="1845" x2="160.901" y2="1323.46" gradientUnits="userSpaceOnUse">
<stop offset="0.0539996"/>
<stop offset="0.204" stop-color="#135877"/>
<stop offset="0.395" stop-color="#23A4DD"/>
<stop offset="0.5" stop-color="white"/>
<stop offset="0.585" stop-color="#135877"/>
<stop offset="0.924"/>
</linearGradient>
<linearGradient id="paint3_linear_533_875" x1="117" y1="1984" x2="117" y2="2286" gradientUnits="userSpaceOnUse">
<stop offset="0.0539996"/>
<stop offset="0.204" stop-color="#135877"/>
<stop offset="0.395" stop-color="#23A4DD"/>
<stop offset="0.5" stop-color="white"/>
<stop offset="0.575" stop-color="#135877"/>
<stop offset="0.924"/>
</linearGradient>
<linearGradient id="paint4_linear_533_875" x1="96.7499" y1="1959" x2="96.7499" y2="2221.5" gradientUnits="userSpaceOnUse">
<stop offset="0.0539996"/>
<stop offset="0.204" stop-color="#135877"/>
<stop offset="0.395" stop-color="#23A4DD"/>
<stop offset="0.5" stop-color="white"/>
<stop offset="0.575" stop-color="#135877"/>
<stop offset="0.924"/>
</linearGradient>
<linearGradient id="paint5_linear_533_875" x1="322" y1="2345.41" x2="327.045" y2="1206" gradientUnits="userSpaceOnUse">
<stop offset="0.0539996"/>
<stop offset="0.14951" stop-color="#135877"/>
<stop offset="0.328442" stop-color="#23A4DD"/>
<stop offset="0.408442" stop-color="white"/>
<stop offset="0.478278" stop-color="#135877"/>
<stop offset="0.924"/>
</linearGradient>
<linearGradient id="paint6_linear_533_875" x1="214.792" y1="2865.51" x2="342.08" y2="3737.16" gradientUnits="userSpaceOnUse">
<stop offset="0.0539996"/>
<stop offset="0.321945" stop-color="#135877"/>
<stop offset="0.629976" stop-color="#23A4DD"/>
<stop offset="0.723513" stop-color="white"/>
<stop offset="0.790101" stop-color="#135877"/>
<stop offset="0.984757"/>
</linearGradient>
<linearGradient id="paint7_linear_533_875" x1="446.789" y1="2729.29" x2="446.789" y2="2425.34" gradientUnits="userSpaceOnUse">
<stop offset="0.0539996"/>
<stop offset="0.204" stop-color="#135877"/>
<stop offset="0.395" stop-color="#23A4DD"/>
<stop offset="0.5" stop-color="white"/>
<stop offset="0.575" stop-color="#135877"/>
<stop offset="0.924"/>
</linearGradient>
<linearGradient id="paint8_linear_533_875" x1="466.789" y1="2807.82" x2="466.789" y2="2490.3" gradientUnits="userSpaceOnUse">
<stop offset="0.0539996"/>
<stop offset="0.204" stop-color="#135877"/>
<stop offset="0.395" stop-color="#23A4DD"/>
<stop offset="0.5" stop-color="white"/>
<stop offset="0.575" stop-color="#135877"/>
<stop offset="0.924"/>
</linearGradient>
<linearGradient id="paint9_linear_533_875" x1="236.039" y1="2378.89" x2="189.927" y2="3577.27" gradientUnits="userSpaceOnUse">
<stop offset="0.0539996"/>
<stop offset="0.14951" stop-color="#135877"/>
<stop offset="0.422619" stop-color="#23A4DD"/>
<stop offset="0.65054" stop-color="white"/>
<stop offset="0.79768" stop-color="#135877"/>
<stop offset="0.954082"/>
</linearGradient>
</defs>
</svg>
