<svg width="1462" height="4609" viewBox="0 0 1462 4609" fill="none" xmlns="http://www.w3.org/2000/svg">
<path fill-rule="evenodd" clip-rule="evenodd" d="M389.547 2943.1L4.49258 2590.62L6.51824 2588.4L392.06 2941.33L392.547 2941.78V2942.44V3679.04L1443.92 4488.82L1442.09 4491.2L390.132 3680.97L389.547 3680.52V3679.78V2943.1ZM359.047 2967.61L2 2645.12L4.01083 2642.9L361.553 2965.83L362.047 2966.28V2966.94V3696.49L1443.92 4524.32L1442.09 4526.7L359.636 3698.42L359.047 3697.97V3697.23V2967.61ZM327.047 2992.29L2.00078 2699.12L4.01004 2696.9L329.552 2990.51L330.047 2990.96V2991.62V3713.94L1443.91 4561.82L1442.1 4564.2L327.639 3715.88L327.047 3715.43V3714.68V2992.29ZM296.047 3015.99L2.00595 2753.13L4.00537 2750.89L298.547 3014.2L299.047 3014.65V3015.32V3728.97L1443.92 4605.82L1442.09 4608.2L296.635 3730.9L296.047 3730.45V3729.71V3015.99Z" fill="black"/>
<g filter="url(#filter0_d_719_499)">
<path d="M3.00537 2590.01L188.547 2758.71L311.547 2870.21L391.348 2942.67V3678.32M3.00537 2644.51L278.547 2891.54L360.813 2966.87V3699.17M3.00537 2698.51L328.818 2991.77V3712.26M4.00537 2752.01L297.806 3015.55V3726.8" stroke="url(#paint0_linear_719_499)" stroke-width="0.5"/>
</g>
<path d="M406.048 2512.93L405.054 2511.81L404.548 2512.26V2512.93H406.048ZM414.048 2668.06C414.048 2663.64 410.467 2660.06 406.048 2660.06C401.63 2660.06 398.048 2663.64 398.048 2668.06C398.048 2672.48 401.63 2676.06 406.048 2676.06C410.467 2676.06 414.048 2672.48 414.048 2668.06ZM1442.01 1593.89L405.054 2511.81L407.043 2514.05L1444 1596.13L1442.01 1593.89ZM404.548 2512.93V2668.06H407.548V2512.93H404.548Z" fill="black"/>
<path d="M1442.01 1595.01L407.048 2513.33V2660.3" stroke="url(#paint1_linear_719_499)" stroke-width="0.5"/>
<path d="M446.549 2537.65L445.553 2536.53L445.049 2536.98V2537.65H446.549ZM454.549 2747.08C454.549 2742.66 450.967 2739.08 446.549 2739.08C442.13 2739.08 438.549 2742.66 438.549 2747.08C438.549 2751.49 442.13 2755.08 446.549 2755.08C450.967 2755.08 454.549 2751.49 454.549 2747.08ZM1442.01 1651.89L445.553 2536.53L447.545 2538.78L1444 1654.13L1442.01 1651.89ZM445.049 2537.65L445.049 2747.08H448.049L448.049 2537.65H445.049Z" fill="black"/>
<path d="M1442.01 1654.01L447.049 2537.9V2738.83" stroke="url(#paint2_linear_719_499)" stroke-width="0.5"/>
<path d="M572.047 2192.01C572.047 2196.43 575.629 2200.01 580.047 2200.01C584.465 2200.01 588.047 2196.43 588.047 2192.01C588.047 2187.59 584.465 2184.01 580.047 2184.01C575.629 2184.01 572.047 2187.59 572.047 2192.01ZM286.047 2910.44L287.057 2911.55L287.547 2911.11V2910.44H286.047ZM186.047 3001.58L185.037 3000.47L184.547 3000.92V3001.58H186.047ZM142.047 3483.45C142.047 3487.86 145.629 3491.45 150.047 3491.45C154.465 3491.45 158.047 3487.86 158.047 3483.45C158.047 3479.03 154.465 3475.45 150.047 3475.45C145.629 3475.45 142.047 3479.03 142.047 3483.45ZM572.047 2240.49C572.047 2244.91 575.629 2248.49 580.047 2248.49C584.465 2248.49 588.047 2244.91 588.047 2240.49C588.047 2236.07 584.465 2232.49 580.047 2232.49C575.629 2232.49 572.047 2236.07 572.047 2240.49ZM326.047 2932.74L327.113 2933.8L327.547 2933.36V2932.74H326.047ZM226.047 3029.7L225.024 3028.6L224.547 3029.05V3029.7H226.047ZM142.047 3543.56C142.047 3547.98 145.629 3551.56 150.047 3551.56C154.465 3551.56 158.047 3547.98 158.047 3543.56C158.047 3539.14 154.465 3535.56 150.047 3535.56C145.629 3535.56 142.047 3539.14 142.047 3543.56ZM572.047 2291.87C572.047 2296.29 575.629 2299.87 580.047 2299.87C584.465 2299.87 588.047 2296.29 588.047 2291.87C588.047 2287.46 584.465 2283.87 580.047 2283.87C575.629 2283.87 572.047 2287.46 572.047 2291.87ZM366.047 2959.89L367.091 2960.97L367.547 2960.53V2959.89H366.047ZM266.047 3056.85L265.003 3055.77L264.547 3056.21V3056.85H266.047ZM142.047 3603.67C142.047 3608.09 145.629 3611.67 150.047 3611.67C154.465 3611.67 158.047 3608.09 158.047 3603.67C158.047 3599.25 154.465 3595.67 150.047 3595.67C145.629 3595.67 142.047 3599.25 142.047 3603.67ZM319.047 3005.46L318.003 3004.38H318.003L319.047 3005.46ZM266.047 3433.03L267.288 3433.87L267.547 3433.49V3433.03H266.047ZM279.047 2980.25L280.07 2981.35L280.092 2981.33L280.114 2981.31L279.047 2980.25ZM279.047 3044.24L278.003 3043.16L279.047 3044.24ZM272.047 3051.03L273.091 3052.11L272.047 3051.03ZM299.047 3024.85L298.003 3023.77L299.047 3024.85ZM309.047 3015.15L310.091 3016.23H310.091L309.047 3015.15ZM344.047 2981.22L343.003 2980.14H343.003L344.047 2981.22ZM331.047 2993.82L332.091 2994.9H332.091L331.047 2993.82ZM356.047 2969.59L357.091 2970.66H357.091L356.047 2969.59ZM366.047 2484.81L365.043 2483.7L364.547 2484.15V2484.81H366.047ZM326.047 2464.94L325.054 2463.81L324.547 2464.26V2464.94H326.047ZM286.047 2445.06L285.069 2443.92L284.547 2444.37V2445.06H286.047ZM226.047 3433.03L227.283 3433.88L227.547 3433.5V3433.03H226.047ZM186.047 3433.03L187.268 3433.9L187.547 3433.51V3433.03H186.047ZM285.037 2909.34L185.037 3000.47L187.058 3002.69L287.057 2911.55L285.037 2909.34ZM264.547 3056.85V3433.03H267.547V3056.85H264.547ZM264.807 3432.19L148.807 3602.83L151.288 3604.51L267.288 3433.87L264.807 3432.19ZM324.981 2931.69L277.981 2979.2L280.114 2981.31L327.113 2933.8L324.981 2931.69ZM278.024 2979.15L225.024 3028.6L227.07 3030.79L280.07 2981.35L278.024 2979.15ZM278.003 3043.16L271.003 3049.95L273.091 3052.11L280.091 3045.32L278.003 3043.16ZM271.003 3049.95L265.003 3055.77L267.091 3057.92L273.091 3052.11L271.003 3049.95ZM298.003 3023.77L278.003 3043.16L280.091 3045.32L300.091 3025.93L298.003 3023.77ZM318.003 3004.38L308.003 3014.08L310.091 3016.23L320.091 3006.54L318.003 3004.38ZM308.003 3014.08L298.003 3023.77L300.091 3025.93L310.091 3016.23L308.003 3014.08ZM343.003 2980.14L330.003 2992.75L332.091 2994.9L345.091 2982.3L343.003 2980.14ZM330.003 2992.75L318.003 3004.38L320.091 3006.54L332.091 2994.9L330.003 2992.75ZM365.003 2958.81L355.003 2968.51L357.091 2970.66L367.091 2960.97L365.003 2958.81ZM355.003 2968.51L343.003 2980.14L345.091 2982.3L357.091 2970.66L355.003 2968.51ZM579.043 2290.76L365.043 2483.7L367.052 2485.93L581.052 2292.99L579.043 2290.76ZM364.547 2484.81V2959.89H367.547V2484.81H364.547ZM579.054 2239.36L325.054 2463.81L327.04 2466.06L581.04 2241.61L579.054 2239.36ZM324.547 2464.94V2932.74H327.547V2464.94H324.547ZM579.069 2190.87L285.069 2443.92L287.026 2446.2L581.026 2193.15L579.069 2190.87ZM284.547 2445.06V2910.44H287.547V2445.06H284.547ZM224.547 3029.7V3433.03H227.547V3029.7H224.547ZM224.811 3432.18L148.811 3542.71L151.283 3544.41L227.283 3433.88L224.811 3432.18ZM184.547 3001.58V3433.03H187.547V3001.58H184.547ZM184.826 3432.16L148.826 3482.57L151.268 3484.32L187.268 3433.9L184.826 3432.16Z" fill="black"/>
<g filter="url(#filter1_d_719_499)">
<path d="M580.547 2192.49L286.547 2445.06V2910.93L238.047 2955.04L186.547 3002.07L186.547 3433.03M580.547 2240.97L326.547 2465.42V2932.26L277.047 2982.19L226.047 3029.35V3433.03M579.547 2291.39L365.547 2484.81V2959.52L318.047 3006.43L266.047 3056.44V3433.03" stroke="url(#paint3_linear_719_499)" stroke-width="0.5"/>
</g>
<path fill-rule="evenodd" clip-rule="evenodd" d="M181.511 1692.34L1444.01 2832.4L1442 2834.62L179.007 1694.12L178.512 1693.68L178.512 1693.01L178.012 1179.01L181.012 1179.01L181.511 1692.34ZM212.012 1667.07L1444.01 2767.89L1442.01 2770.13L209.512 1668.86L209.012 1668.41V1667.74L209.012 1179.01H212.012L212.012 1667.07ZM244.012 1641.61L1444 2708.89L1442.01 2711.13L241.515 1643.4L241.012 1642.95V1642.28L241.012 1179.01H244.012L244.012 1641.61ZM275.011 1617.16L1444 2651.89L1442.02 2654.13L272.518 1618.96L272.013 1618.52L272.012 1617.84L271.512 1179.01L274.512 1179.01L275.011 1617.16Z" fill="black"/>
<g filter="url(#filter2_d_719_499)">
<path d="M1442.01 2833.01L179.211 1694.27L179.012 1180.01M1442.01 2769.01L209.746 1669.31L210.012 1180.01M1442.01 2710.01L241.741 1643.62L241.741 1180.01M1442.01 2653.01L272.753 1619.1L272.753 1180.01" stroke="url(#paint4_linear_719_499)" stroke-width="0.5"/>
</g>
<path d="M165.012 2135.5L166.033 2136.59L166.512 2136.15V2135.5H165.012ZM157.012 1976.01C157.012 1980.43 160.593 1984.01 165.012 1984.01C169.43 1984.01 173.012 1980.43 173.012 1976.01C173.012 1971.59 169.43 1968.01 165.012 1968.01C160.593 1968.01 157.012 1971.59 157.012 1976.01ZM4.03271 2287.11L166.033 2136.59L163.991 2134.4L1.99073 2284.91L4.03271 2287.11ZM166.512 2135.5V1976.01H163.512V2135.5H166.512Z" fill="black"/>
<path d="M3.01172 2285.01L164.012 2135.51V1984.01" stroke="url(#paint5_linear_719_499)" stroke-width="0.5"/>
<path d="M124.512 2110.51L125.521 2111.62L126.012 2111.17V2110.51H124.512ZM116.512 1956.01C116.512 1960.43 120.093 1964.01 124.512 1964.01C128.93 1964.01 132.512 1960.43 132.512 1956.01C132.512 1951.59 128.93 1948.01 124.512 1948.01C120.093 1948.01 116.512 1951.59 116.512 1956.01ZM4.02096 2222.12L125.521 2111.62L123.502 2109.4L2.00248 2219.9L4.02096 2222.12ZM126.012 2110.51V1956.01H123.012V2110.51H126.012Z" fill="black"/>
<path d="M3.01172 2220.01L124.012 2110.26V1959.01" stroke="url(#paint6_linear_719_499)" stroke-width="0.5"/>
<path d="M164.006 4198.5L165.027 4199.59L165.506 4199.15V4198.5H164.006ZM156.006 4039.01C156.006 4043.43 159.588 4047.01 164.006 4047.01C168.424 4047.01 172.006 4043.43 172.006 4039.01C172.006 4034.59 168.424 4031.01 164.006 4031.01C159.588 4031.01 156.006 4034.59 156.006 4039.01ZM3.02685 4350.11L165.027 4199.59L162.985 4197.4L0.98487 4347.91L3.02685 4350.11ZM165.506 4198.5V4039.01H162.506V4198.5H165.506Z" fill="black"/>
<path d="M2.00586 4348.01L163.006 4198.51V4047.01" stroke="url(#paint7_linear_719_499)" stroke-width="0.5"/>
<path d="M205.006 4222.5L206.035 4223.59L206.506 4223.14V4222.5H205.006ZM197.006 4063.01C197.006 4067.43 200.588 4071.01 205.006 4071.01C209.424 4071.01 213.006 4067.43 213.006 4063.01C213.006 4058.59 209.424 4055.01 205.006 4055.01C200.588 4055.01 197.006 4058.59 197.006 4063.01ZM4.03504 4414.1L206.035 4223.59L203.977 4221.4L1.97668 4411.92L4.03504 4414.1ZM206.506 4222.5V4063.01H203.506V4222.5H206.506Z" fill="black"/>
<path d="M3.00586 4412.01L204.006 4222.51V4071.01" stroke="url(#paint8_linear_719_499)" stroke-width="0.5"/>
<path d="M123.506 4173.51L124.515 4174.62L125.006 4174.17V4173.51H123.506ZM115.506 4019.01C115.506 4023.43 119.087 4027.01 123.506 4027.01C127.924 4027.01 131.506 4023.43 131.506 4019.01C131.506 4014.59 127.924 4011.01 123.506 4011.01C119.087 4011.01 115.506 4014.59 115.506 4019.01ZM3.0151 4285.12L124.515 4174.62L122.496 4172.4L0.996622 4282.9L3.0151 4285.12ZM125.006 4173.51V4019.01H122.006V4173.51H125.006Z" fill="black"/>
<path d="M2.00586 4283.01L123.006 4173.26V4022.01" stroke="url(#paint9_linear_719_499)" stroke-width="0.5"/>
<path d="M3.01196 2474.01L285.012 2206.01L285.012 1726.01L385.012 1632.01L385.012 1187.01M3.01196 2414.01L245.012 2185.51L245.012 1703.01L292.012 1654.01L345.012 1603.01L345.012 1187.01M3.01196 2354.01L205.012 2165.01L205.012 1675.01L215.012 1665.01L227.012 1653.01L240.012 1640.01L252.012 1628.01L262.012 1618.01L272.012 1608.01L292.012 1588.01L299.012 1581.01L305.012 1575.01L305.012 1385.01L305.012 1187.01" stroke="black" stroke-width="3"/>
<path d="M1285.01 2248.5L1283.97 2249.58L1283.51 2249.13V2248.5H1285.01ZM1293.01 2089.01C1293.01 2093.43 1289.42 2097.01 1285.01 2097.01C1280.59 2097.01 1277.01 2093.43 1277.01 2089.01C1277.01 2084.59 1280.59 2081.01 1285.01 2081.01C1289.42 2081.01 1293.01 2084.59 1293.01 2089.01ZM1440.97 2400.09L1283.97 2249.58L1286.04 2247.41L1443.04 2397.93L1440.97 2400.09ZM1283.51 2248.5V2089.01H1286.51V2248.5H1283.51Z" fill="black"/>
<path d="M1442.01 2398.01L1286.01 2248.51V2097.01" stroke="url(#paint10_linear_719_499)" stroke-width="0.5"/>
<path d="M1324.01 2223.51L1322.98 2224.6L1322.51 2224.16V2223.51H1324.01ZM1332.01 2069.01C1332.01 2073.43 1328.42 2077.01 1324.01 2077.01C1319.59 2077.01 1316.01 2073.43 1316.01 2069.01C1316.01 2064.59 1319.59 2061.01 1324.01 2061.01C1328.42 2061.01 1332.01 2064.59 1332.01 2069.01ZM1440.98 2335.1L1322.98 2224.6L1325.03 2222.41L1443.03 2332.91L1440.98 2335.1ZM1322.51 2223.51V2069.01H1325.51V2223.51H1322.51Z" fill="black"/>
<path d="M1254.01 647.009C1254.01 651.428 1250.42 655.009 1246.01 655.009C1241.59 655.009 1238.01 651.428 1238.01 647.009C1238.01 642.591 1241.59 639.009 1246.01 639.009C1250.42 639.009 1254.01 642.591 1254.01 647.009ZM1254.01 703.509C1254.01 707.928 1250.42 711.509 1246.01 711.509C1241.59 711.509 1238.01 707.928 1238.01 703.509C1238.01 699.091 1241.59 695.509 1246.01 695.509C1250.42 695.509 1254.01 699.091 1254.01 703.509ZM1441.96 838.089L1244.96 648.089L1247.05 645.93L1444.05 835.93L1441.96 838.089ZM1441.96 894.589L1244.96 704.589L1247.05 702.43L1444.05 892.43L1441.96 894.589Z" fill="black"/>
<path d="M1442.01 2333.01L1325.01 2223.26V2072.01" stroke="url(#paint11_linear_719_499)" stroke-width="0.5"/>
<path d="M1325.01 3268.42L1323.99 3267.32L1323.51 3267.77V3268.42H1325.01ZM1333.01 3459.01C1333.01 3454.59 1329.42 3451.01 1325.01 3451.01C1320.59 3451.01 1317.01 3454.59 1317.01 3459.01C1317.01 3463.43 1320.59 3467.01 1325.01 3467.01C1329.42 3467.01 1333.01 3463.43 1333.01 3459.01ZM1441.99 3158.91L1323.99 3267.32L1326.02 3269.53L1444.02 3161.11L1441.99 3158.91ZM1323.51 3268.42V3459.01H1326.51V3268.42H1323.51Z" fill="black"/>
<path d="M1443.01 3161.01L1326.01 3268.66V3417.01" stroke="url(#paint12_linear_719_499)" stroke-width="0.5"/>
<path d="M1295.01 3250.42L1293.99 3249.32L1293.51 3249.76V3250.42H1295.01ZM1303.01 3402.01C1303.01 3397.59 1299.42 3394.01 1295.01 3394.01C1290.59 3394.01 1287.01 3397.59 1287.01 3402.01C1287.01 3406.43 1290.59 3410.01 1295.01 3410.01C1299.42 3410.01 1303.01 3406.43 1303.01 3402.01ZM1441.99 3113.9L1293.99 3249.32L1296.02 3251.53L1444.02 3116.12L1441.99 3113.9ZM1293.51 3250.42V3402.01H1296.51V3250.42H1293.51Z" fill="black"/>
<path d="M1413.01 3143.01L1296.01 3250.66V3399.01" stroke="url(#paint13_linear_719_499)" stroke-width="0.5"/>
<path d="M1324.01 3190.5L1323.01 3191.61L1322.51 3191.17V3190.5H1324.01ZM1332.01 3005.01C1332.01 3009.43 1328.42 3013.01 1324.01 3013.01C1319.59 3013.01 1316.01 3009.43 1316.01 3005.01C1316.01 3000.59 1319.59 2997.01 1324.01 2997.01C1328.42 2997.01 1332.01 3000.59 1332.01 3005.01ZM1441.01 3297.13L1323.01 3191.61L1325.01 3189.38L1443.01 3294.89L1441.01 3297.13ZM1322.51 3190.5V3005.01H1325.51V3190.5H1322.51Z" fill="black"/>
<path d="M1442.01 3295.01L1325.01 3190.31V3046.01" stroke="url(#paint14_linear_719_499)" stroke-width="0.5"/>
<path d="M1294.01 3208.37L1293.01 3209.49L1292.51 3209.04V3208.37H1294.01ZM1302.01 3061.01C1302.01 3065.43 1298.42 3069.01 1294.01 3069.01C1289.59 3069.01 1286.01 3065.43 1286.01 3061.01C1286.01 3056.59 1289.59 3053.01 1294.01 3053.01C1298.42 3053.01 1302.01 3056.59 1302.01 3061.01ZM1441.01 3341.13L1293.01 3209.49L1295 3207.25L1443 3338.89L1441.01 3341.13ZM1292.51 3208.37V3061.01H1295.51V3208.37H1292.51Z" fill="black"/>
<path d="M1412.01 3313.01L1295.01 3207.89V3063.01" stroke="url(#paint15_linear_719_499)" stroke-width="0.5"/>
<path d="M1443.01 2553.01L1061.01 2203.01V1723.01L961.006 1629.01L960.506 1184.01M1443.01 2502.01L1101.01 2182.51V1700.01L1054.01 1651.01L1001.01 1600.01L1000.51 1184.01M1443.01 2452.01L1141.01 2162.01V1672.01L1131.01 1662.01L1119.01 1650.01L1106.01 1637.01L1094.01 1625.01L1084.01 1615.01L1074.01 1605.01L1054.01 1585.01L1047.01 1578.01L1041.01 1572.01V1382.01L1040.51 1184.01" stroke="black" stroke-width="3"/>
<g filter="url(#filter3_d_719_499)">
<path d="M3.01196 2473.01L284.512 2206.01L284.512 1725.51L333.012 1680.01L384.512 1631.51L384.512 1187.01M3.01196 2413.01L244.512 2185.01L244.512 1703.51L294.012 1652.01L345.012 1603.37L345.012 1187.01M4.01196 2354.01L205.512 2165.01L205.512 1675.4L253.012 1627.01L305.012 1575.42L305.012 1187.01" stroke="url(#paint16_linear_719_499)" stroke-width="0.5"/>
</g>
<path fill-rule="evenodd" clip-rule="evenodd" d="M403.506 639.375V0.0100098H406.506V640.01V640.645L406.05 641.087L309.505 734.646L306.506 1187.5L306.506 1187.52L305.006 1187.51L303.506 1187.5L306.506 734L306.51 733.371L306.962 732.933L403.506 639.375ZM443.506 662.407V0.0100098H446.506V663.01V663.613L446.088 664.048L399.088 713.048L399.068 713.07L399.046 713.091L346.506 763.648V1187.51H343.506V763.01V762.372L343.966 761.929L396.944 710.95L443.506 662.407ZM483.506 690.389V0.0100098H486.506V691.01V691.631L486.066 692.071L476.066 702.071L464.066 714.071L451.066 727.071L439.066 739.071L429.066 749.071L419.066 759.071L399.066 779.071L392.066 786.071L386.506 791.631V981.01V1187.51H383.506V981.01V791.01V790.389L383.945 789.949L389.945 783.949L396.945 776.949L416.945 756.949L426.945 746.949L436.945 736.949L448.945 724.949L461.945 711.949L473.945 699.949L483.506 690.389Z" fill="black"/>
<path d="M3.00586 402.01L273.006 665.01V1179.01M3.00586 452.01L242.506 690.284V1179.01M3.00586 502.01L210.506 715.741V1179.01M3.00586 552.01L179.506 740.18V1179.01" stroke="black" stroke-width="3"/>
<g filter="url(#filter4_d_719_499)">
<path d="M404.006 0.146721V639.51L356.006 686.01L307.006 733.51L304.006 1179.01M444.006 0.0100098V662.51L395.006 714.01L344.006 762.645V1179.01M484.006 0.0100098V690.51L436.006 739.01L384.006 790.596V1179.01" stroke="url(#paint17_linear_719_499)" stroke-width="0.5"/>
</g>
<g filter="url(#filter5_d_719_499)">
<path d="M3.50586 401.51L196.006 588.01L273.807 664.753L274.006 1179.01M3.50586 451.51L163.006 610.01L243.272 689.713L243.006 1179.01M3.50586 501.51L211.277 715.395V1179.01M3.50586 551.51L180.265 739.92V1179.01" stroke="url(#paint18_linear_719_499)" stroke-width="0.5"/>
</g>
<path fill-rule="evenodd" clip-rule="evenodd" d="M1042.01 544.155V1184.01H1039.01V543.52V542.885L1039.46 542.443L1136.01 448.884L1139.01 0.0159912L1139.01 0L1140.51 0.0100098L1142.01 0.0200195L1139.01 449.53L1139 450.159L1138.55 450.597L1042.01 544.155ZM1002.01 521.123L1002.01 1184.01H999.006L999.006 520.52V519.917L999.423 519.482L1046.42 470.482L1046.44 470.46L1046.47 470.439L1099.01 419.882L1099.01 0.0100098H1102.01L1102.01 420.52V421.158L1101.55 421.601L1048.57 472.58L1002.01 521.123ZM962.006 493.141L962.006 1184.01H959.006L959.006 492.52V491.898L959.445 491.459L969.445 481.459L981.445 469.459L994.445 456.459L1006.44 444.459L1016.44 434.459L1026.44 424.459L1046.44 404.459L1053.44 397.459L1059.01 391.898V202.52L1059.01 0.0100098H1062.01L1062.01 202.52V392.52V393.141L1061.57 393.581L1055.57 399.581L1048.57 406.581L1028.57 426.581L1018.57 436.581L1008.57 446.581L996.566 458.581L983.566 471.581L971.566 483.581L962.006 493.141Z" fill="black"/>
<path d="M1443.01 782.01L1172.51 518.52V0.0100098M1443.01 732.01L1203.01 493.246V0.0100098M1443.01 682.01L1235.01 467.789V0.0100098M1443.01 628.51L1266.01 449.51V0.0100098" stroke="black" stroke-width="3"/>
<g filter="url(#filter6_d_719_499)">
<path d="M1041.51 1183.38V544.02L1089.51 497.52L1138.51 450.02L1141.51 4.5199M1001.51 1183.52L1001.51 521.02L1050.51 469.52L1101.51 420.885L1101.51 4.5199M961.506 1183.52L961.506 493.02L1009.51 444.52L1061.51 392.934L1061.51 4.5199" stroke="url(#paint19_linear_719_499)" stroke-width="0.5"/>
</g>
<g filter="url(#filter7_d_719_499)">
<path d="M1442.01 782.02L1249.51 595.52L1171.7 518.777L1171.51 0.0098877M1442.01 732.02L1282.51 573.52L1202.24 493.817L1202.51 0.0098877M1442.01 682.02L1234.23 468.135V0.0098877M1442.01 628.01L1265.25 449.833V0.0098877" stroke="url(#paint20_linear_719_499)" stroke-width="0.5"/>
</g>
<defs>
<filter id="filter0_d_719_499" x="2.8374" y="2589.83" width="407.661" height="1150.88" filterUnits="userSpaceOnUse" color-interpolation-filters="sRGB">
<feFlood flood-opacity="0" result="BackgroundImageFix"/>
<feColorMatrix in="SourceAlpha" type="matrix" values="0 0 0 0 0 0 0 0 0 0 0 0 0 0 0 0 0 0 127 0" result="hardAlpha"/>
<feOffset dx="12" dy="7"/>
<feGaussianBlur stdDeviation="3.45"/>
<feComposite in2="hardAlpha" operator="out"/>
<feColorMatrix type="matrix" values="0 0 0 0 0 0 0 0 0 0 0 0 0 0 0 0 0 0 0.3 0"/>
<feBlend mode="normal" in2="BackgroundImageFix" result="effect1_dropShadow_719_499"/>
<feBlend mode="normal" in="SourceGraphic" in2="effect1_dropShadow_719_499" result="shape"/>
</filter>
<filter id="filter1_d_719_499" x="186.297" y="2192.31" width="413.316" height="1254.62" filterUnits="userSpaceOnUse" color-interpolation-filters="sRGB">
<feFlood flood-opacity="0" result="BackgroundImageFix"/>
<feColorMatrix in="SourceAlpha" type="matrix" values="0 0 0 0 0 0 0 0 0 0 0 0 0 0 0 0 0 0 127 0" result="hardAlpha"/>
<feOffset dx="12" dy="7"/>
<feGaussianBlur stdDeviation="3.45"/>
<feComposite in2="hardAlpha" operator="out"/>
<feColorMatrix type="matrix" values="0 0 0 0 0 0 0 0 0 0 0 0 0 0 0 0 0 0 0.3 0"/>
<feBlend mode="normal" in2="BackgroundImageFix" result="effect1_dropShadow_719_499"/>
<feBlend mode="normal" in="SourceGraphic" in2="effect1_dropShadow_719_499" result="shape"/>
</filter>
<filter id="filter2_d_719_499" x="178.762" y="1180.01" width="1282.32" height="1667.09" filterUnits="userSpaceOnUse" color-interpolation-filters="sRGB">
<feFlood flood-opacity="0" result="BackgroundImageFix"/>
<feColorMatrix in="SourceAlpha" type="matrix" values="0 0 0 0 0 0 0 0 0 0 0 0 0 0 0 0 0 0 127 0" result="hardAlpha"/>
<feOffset dx="12" dy="7"/>
<feGaussianBlur stdDeviation="3.45"/>
<feComposite in2="hardAlpha" operator="out"/>
<feColorMatrix type="matrix" values="0 0 0 0 0 0 0 0 0 0 0 0 0 0 0 0 0 0 0.3 0"/>
<feBlend mode="normal" in2="BackgroundImageFix" result="effect1_dropShadow_719_499"/>
<feBlend mode="normal" in="SourceGraphic" in2="effect1_dropShadow_719_499" result="shape"/>
</filter>
<filter id="filter3_d_719_499" x="2.83984" y="1187.01" width="400.822" height="1300.08" filterUnits="userSpaceOnUse" color-interpolation-filters="sRGB">
<feFlood flood-opacity="0" result="BackgroundImageFix"/>
<feColorMatrix in="SourceAlpha" type="matrix" values="0 0 0 0 0 0 0 0 0 0 0 0 0 0 0 0 0 0 127 0" result="hardAlpha"/>
<feOffset dx="12" dy="7"/>
<feGaussianBlur stdDeviation="3.45"/>
<feComposite in2="hardAlpha" operator="out"/>
<feColorMatrix type="matrix" values="0 0 0 0 0 0 0 0 0 0 0 0 0 0 0 0 0 0 0.3 0"/>
<feBlend mode="normal" in2="BackgroundImageFix" result="effect1_dropShadow_719_499"/>
<feBlend mode="normal" in="SourceGraphic" in2="effect1_dropShadow_719_499" result="shape"/>
</filter>
<filter id="filter4_d_719_499" x="303.756" y="0.0100098" width="199.4" height="1192.9" filterUnits="userSpaceOnUse" color-interpolation-filters="sRGB">
<feFlood flood-opacity="0" result="BackgroundImageFix"/>
<feColorMatrix in="SourceAlpha" type="matrix" values="0 0 0 0 0 0 0 0 0 0 0 0 0 0 0 0 0 0 127 0" result="hardAlpha"/>
<feOffset dx="12" dy="7"/>
<feGaussianBlur stdDeviation="3.45"/>
<feComposite in2="hardAlpha" operator="out"/>
<feColorMatrix type="matrix" values="0 0 0 0 0 0 0 0 0 0 0 0 0 0 0 0 0 0 0.3 0"/>
<feBlend mode="normal" in2="BackgroundImageFix" result="effect1_dropShadow_719_499"/>
<feBlend mode="normal" in="SourceGraphic" in2="effect1_dropShadow_719_499" result="shape"/>
</filter>
<filter id="filter5_d_719_499" x="3.32373" y="401.331" width="289.832" height="791.58" filterUnits="userSpaceOnUse" color-interpolation-filters="sRGB">
<feFlood flood-opacity="0" result="BackgroundImageFix"/>
<feColorMatrix in="SourceAlpha" type="matrix" values="0 0 0 0 0 0 0 0 0 0 0 0 0 0 0 0 0 0 127 0" result="hardAlpha"/>
<feOffset dx="12" dy="7"/>
<feGaussianBlur stdDeviation="3.45"/>
<feComposite in2="hardAlpha" operator="out"/>
<feColorMatrix type="matrix" values="0 0 0 0 0 0 0 0 0 0 0 0 0 0 0 0 0 0 0.3 0"/>
<feBlend mode="normal" in2="BackgroundImageFix" result="effect1_dropShadow_719_499"/>
<feBlend mode="normal" in="SourceGraphic" in2="effect1_dropShadow_719_499" result="shape"/>
</filter>
<filter id="filter6_d_719_499" x="961.256" y="4.51807" width="199.4" height="1192.9" filterUnits="userSpaceOnUse" color-interpolation-filters="sRGB">
<feFlood flood-opacity="0" result="BackgroundImageFix"/>
<feColorMatrix in="SourceAlpha" type="matrix" values="0 0 0 0 0 0 0 0 0 0 0 0 0 0 0 0 0 0 127 0" result="hardAlpha"/>
<feOffset dx="12" dy="7"/>
<feGaussianBlur stdDeviation="3.45"/>
<feComposite in2="hardAlpha" operator="out"/>
<feColorMatrix type="matrix" values="0 0 0 0 0 0 0 0 0 0 0 0 0 0 0 0 0 0 0.3 0"/>
<feBlend mode="normal" in2="BackgroundImageFix" result="effect1_dropShadow_719_499"/>
<feBlend mode="normal" in="SourceGraphic" in2="effect1_dropShadow_719_499" result="shape"/>
</filter>
<filter id="filter7_d_719_499" x="1171.26" y="0.00976562" width="289.829" height="796.09" filterUnits="userSpaceOnUse" color-interpolation-filters="sRGB">
<feFlood flood-opacity="0" result="BackgroundImageFix"/>
<feColorMatrix in="SourceAlpha" type="matrix" values="0 0 0 0 0 0 0 0 0 0 0 0 0 0 0 0 0 0 127 0" result="hardAlpha"/>
<feOffset dx="12" dy="7"/>
<feGaussianBlur stdDeviation="3.45"/>
<feComposite in2="hardAlpha" operator="out"/>
<feColorMatrix type="matrix" values="0 0 0 0 0 0 0 0 0 0 0 0 0 0 0 0 0 0 0.3 0"/>
<feBlend mode="normal" in2="BackgroundImageFix" result="effect1_dropShadow_719_499"/>
<feBlend mode="normal" in="SourceGraphic" in2="effect1_dropShadow_719_499" result="shape"/>
</filter>
<linearGradient id="paint0_linear_719_499" x1="261.798" y1="2796.52" x2="389.086" y2="3668.17" gradientUnits="userSpaceOnUse">
<stop offset="0.0539996"/>
<stop offset="0.321945" stop-color="#135877"/>
<stop offset="0.629976" stop-color="#23A4DD"/>
<stop offset="0.723513" stop-color="white"/>
<stop offset="0.790101" stop-color="#135877"/>
<stop offset="0.984757"/>
</linearGradient>
<linearGradient id="paint1_linear_719_499" x1="924.527" y1="2660.3" x2="924.527" y2="1595.01" gradientUnits="userSpaceOnUse">
<stop offset="0.0539996"/>
<stop offset="0.204" stop-color="#135877"/>
<stop offset="0.395" stop-color="#23A4DD"/>
<stop offset="0.5" stop-color="white"/>
<stop offset="0.575" stop-color="#135877"/>
<stop offset="0.924"/>
</linearGradient>
<linearGradient id="paint2_linear_719_499" x1="944.527" y1="2738.83" x2="944.527" y2="1654.01" gradientUnits="userSpaceOnUse">
<stop offset="0.0539996"/>
<stop offset="0.204" stop-color="#135877"/>
<stop offset="0.395" stop-color="#23A4DD"/>
<stop offset="0.5" stop-color="white"/>
<stop offset="0.575" stop-color="#135877"/>
<stop offset="0.924"/>
</linearGradient>
<linearGradient id="paint3_linear_719_499" x1="283.047" y1="2309.9" x2="236.936" y2="3508.28" gradientUnits="userSpaceOnUse">
<stop offset="0.0539996"/>
<stop offset="0.14951" stop-color="#135877"/>
<stop offset="0.422619" stop-color="#23A4DD"/>
<stop offset="0.65054" stop-color="white"/>
<stop offset="0.79768" stop-color="#135877"/>
<stop offset="0.954082"/>
</linearGradient>
<linearGradient id="paint4_linear_719_499" x1="308.758" y1="1845.01" x2="126.913" y2="1323.47" gradientUnits="userSpaceOnUse">
<stop offset="0.0539996"/>
<stop offset="0.204" stop-color="#135877"/>
<stop offset="0.395" stop-color="#23A4DD"/>
<stop offset="0.5" stop-color="white"/>
<stop offset="0.585" stop-color="#135877"/>
<stop offset="0.924"/>
</linearGradient>
<linearGradient id="paint5_linear_719_499" x1="83.5117" y1="1984.01" x2="83.5117" y2="2285.01" gradientUnits="userSpaceOnUse">
<stop offset="0.0539996"/>
<stop offset="0.204" stop-color="#135877"/>
<stop offset="0.395" stop-color="#23A4DD"/>
<stop offset="0.5" stop-color="white"/>
<stop offset="0.575" stop-color="#135877"/>
<stop offset="0.924"/>
</linearGradient>
<linearGradient id="paint6_linear_719_499" x1="63.5117" y1="1959.01" x2="63.5117" y2="2220.01" gradientUnits="userSpaceOnUse">
<stop offset="0.0539996"/>
<stop offset="0.204" stop-color="#135877"/>
<stop offset="0.395" stop-color="#23A4DD"/>
<stop offset="0.5" stop-color="white"/>
<stop offset="0.575" stop-color="#135877"/>
<stop offset="0.924"/>
</linearGradient>
<linearGradient id="paint7_linear_719_499" x1="82.5059" y1="4047.01" x2="82.5059" y2="4348.01" gradientUnits="userSpaceOnUse">
<stop offset="0.0539996"/>
<stop offset="0.204" stop-color="#135877"/>
<stop offset="0.395" stop-color="#23A4DD"/>
<stop offset="0.5" stop-color="white"/>
<stop offset="0.575" stop-color="#135877"/>
<stop offset="0.924"/>
</linearGradient>
<linearGradient id="paint8_linear_719_499" x1="103.506" y1="4071.01" x2="103.506" y2="4412.01" gradientUnits="userSpaceOnUse">
<stop offset="0.0539996"/>
<stop offset="0.204" stop-color="#135877"/>
<stop offset="0.395" stop-color="#23A4DD"/>
<stop offset="0.5" stop-color="white"/>
<stop offset="0.575" stop-color="#135877"/>
<stop offset="0.924"/>
</linearGradient>
<linearGradient id="paint9_linear_719_499" x1="62.5058" y1="4022.01" x2="62.5058" y2="4283.01" gradientUnits="userSpaceOnUse">
<stop offset="0.0539996"/>
<stop offset="0.204" stop-color="#135877"/>
<stop offset="0.395" stop-color="#23A4DD"/>
<stop offset="0.5" stop-color="white"/>
<stop offset="0.575" stop-color="#135877"/>
<stop offset="0.924"/>
</linearGradient>
<linearGradient id="paint10_linear_719_499" x1="1364.01" y1="2097.01" x2="1364.01" y2="2398.01" gradientUnits="userSpaceOnUse">
<stop offset="0.0539996"/>
<stop offset="0.204" stop-color="#135877"/>
<stop offset="0.395" stop-color="#23A4DD"/>
<stop offset="0.5" stop-color="white"/>
<stop offset="0.575" stop-color="#135877"/>
<stop offset="0.924"/>
</linearGradient>
<linearGradient id="paint11_linear_719_499" x1="1383.51" y1="2072.01" x2="1383.51" y2="2333.01" gradientUnits="userSpaceOnUse">
<stop offset="0.0539996"/>
<stop offset="0.204" stop-color="#135877"/>
<stop offset="0.395" stop-color="#23A4DD"/>
<stop offset="0.5" stop-color="white"/>
<stop offset="0.575" stop-color="#135877"/>
<stop offset="0.924"/>
</linearGradient>
<linearGradient id="paint12_linear_719_499" x1="1384.51" y1="3417.01" x2="1384.51" y2="3161.01" gradientUnits="userSpaceOnUse">
<stop offset="0.0539996"/>
<stop offset="0.204" stop-color="#135877"/>
<stop offset="0.395" stop-color="#23A4DD"/>
<stop offset="0.5" stop-color="white"/>
<stop offset="0.575" stop-color="#135877"/>
<stop offset="0.924"/>
</linearGradient>
<linearGradient id="paint13_linear_719_499" x1="1354.51" y1="3399.01" x2="1354.51" y2="3143.01" gradientUnits="userSpaceOnUse">
<stop offset="0.0539996"/>
<stop offset="0.204" stop-color="#135877"/>
<stop offset="0.395" stop-color="#23A4DD"/>
<stop offset="0.5" stop-color="white"/>
<stop offset="0.575" stop-color="#135877"/>
<stop offset="0.924"/>
</linearGradient>
<linearGradient id="paint14_linear_719_499" x1="1383.51" y1="3046.01" x2="1383.51" y2="3295.01" gradientUnits="userSpaceOnUse">
<stop offset="0.0539996"/>
<stop offset="0.204" stop-color="#135877"/>
<stop offset="0.395" stop-color="#23A4DD"/>
<stop offset="0.5" stop-color="white"/>
<stop offset="0.575" stop-color="#135877"/>
<stop offset="0.924"/>
</linearGradient>
<linearGradient id="paint15_linear_719_499" x1="1353.51" y1="3063.01" x2="1353.51" y2="3313.01" gradientUnits="userSpaceOnUse">
<stop offset="0.0539996"/>
<stop offset="0.204" stop-color="#135877"/>
<stop offset="0.395" stop-color="#23A4DD"/>
<stop offset="0.5" stop-color="white"/>
<stop offset="0.575" stop-color="#135877"/>
<stop offset="0.924"/>
</linearGradient>
<linearGradient id="paint16_linear_719_499" x1="288.012" y1="2345.42" x2="293.057" y2="1206.01" gradientUnits="userSpaceOnUse">
<stop offset="0.0539996"/>
<stop offset="0.14951" stop-color="#135877"/>
<stop offset="0.328442" stop-color="#23A4DD"/>
<stop offset="0.408442" stop-color="white"/>
<stop offset="0.478278" stop-color="#135877"/>
<stop offset="0.924"/>
</linearGradient>
<linearGradient id="paint17_linear_719_499" x1="401.006" y1="20.6019" x2="395.961" y2="1160.01" gradientUnits="userSpaceOnUse">
<stop offset="0.0539996"/>
<stop offset="0.204" stop-color="#135877"/>
<stop offset="0.395" stop-color="#23A4DD"/>
<stop offset="0.5" stop-color="white"/>
<stop offset="0.575" stop-color="#135877"/>
<stop offset="0.924"/>
</linearGradient>
<linearGradient id="paint18_linear_719_499" x1="144.259" y1="514.01" x2="314.029" y2="1242.55" gradientUnits="userSpaceOnUse">
<stop offset="0.0539996"/>
<stop offset="0.204" stop-color="#135877"/>
<stop offset="0.395" stop-color="#23A4DD"/>
<stop offset="0.608107" stop-color="white"/>
<stop offset="0.835419" stop-color="#135877"/>
<stop offset="0.924"/>
</linearGradient>
<linearGradient id="paint19_linear_719_499" x1="1044.51" y1="1162.93" x2="1049.55" y2="23.5202" gradientUnits="userSpaceOnUse">
<stop offset="0.0539996"/>
<stop offset="0.204" stop-color="#135877"/>
<stop offset="0.395" stop-color="#23A4DD"/>
<stop offset="0.5" stop-color="white"/>
<stop offset="0.575" stop-color="#135877"/>
<stop offset="0.924"/>
</linearGradient>
<linearGradient id="paint20_linear_719_499" x1="1301.25" y1="669.52" x2="1131.48" y2="-59.0232" gradientUnits="userSpaceOnUse">
<stop offset="0.0539996"/>
<stop offset="0.204" stop-color="#135877"/>
<stop offset="0.395" stop-color="#23A4DD"/>
<stop offset="0.608107" stop-color="white"/>
<stop offset="0.835419" stop-color="#135877"/>
<stop offset="0.924"/>
</linearGradient>
</defs>
</svg>
