<svg width="125" height="146" viewBox="0 0 125 146" fill="none" xmlns="http://www.w3.org/2000/svg">
<path d="M122.946 126.161C125.521 124.338 124.325 121.749 123.406 115.323C122.67 110.182 121.076 107.618 120.371 106.979C114.302 101.416 100.729 90.617 94.9905 91.9213C85.6857 93.8215 79.6279 99.113 77.0586 102.367M122.946 126.161C120.371 127.983 112.187 134.217 107.313 132.011C102.439 129.805 86.0705 118.392 78.53 108.034C76.6908 105.253 76.7827 103.51 77.0586 102.367M122.946 126.161C117.336 132.203 102.825 144.422 89.6569 144.959C73.1964 145.63 67.1271 138.149 45.517 119.159C23.9068 100.169 3.85995 54.4211 2.38862 49.5297C0.91729 44.6384 -1.93341 29.5808 4.68757 16.729C7.20735 11.838 10.1 8.3916 13.1477 5.99869M77.0586 102.367C76.7231 102.792 76.447 103.183 76.231 103.526C51.7701 85.8791 42.4824 59.5042 41.103 56.3392C39.7236 53.1743 40.3673 50.5847 42.4824 48.5707C43.6566 47.4525 45.3977 45.0335 47.0606 42.5284M13.1477 5.99869C18.1081 2.10397 23.4791 1 28.3208 1L40.2754 3.87726C41.6547 4.29287 44.7261 6.00644 45.9768 9.53587C47.2274 13.0653 50.1762 23.6664 51.4943 28.5258C51.8621 30.2201 52.1931 34.2803 50.5747 36.9657C49.6748 38.4589 48.3928 40.5213 47.0606 42.5284M13.1477 5.99869C12.3201 7.14578 11.4557 11.1279 14.6191 17.8799C17.7824 24.6319 24.6425 37.1256 27.6771 42.5284C28.6273 44.8302 31.9256 48.9159 37.5166 46.8443C43.1077 44.7727 46.2088 43.1039 47.0606 42.5284M23.1712 13.3722L14.2512 11.0704M28.9645 34.4721C30.2519 36.2304 32.5141 40.2266 31.2635 42.1448M77.2425 106.404C74.4838 109.089 68.8376 114.537 68.3226 114.843C67.6789 115.227 67.403 115.515 64.9201 113.213M20.8722 59.1206C27.0641 73.8266 43.7698 105.233 61.0579 113.213M29.2404 46.5566L22.5275 54.9006M38.5282 53.6538L28.5047 56.627M37.5166 9.53587C39.1412 9.0883 42.6663 9.22896 43.7698 13.3722C44.8733 17.5155 46.4979 23.027 47.1722 25.2649C47.9692 27.4068 48.7355 32.0744 45.425 33.6089C42.1145 35.1435 39.693 36.1025 38.896 36.3903C37.6086 36.9657 34.6659 37.5028 33.1946 35.0475C31.3554 31.9785 26.9414 20.4694 27.6771 16.729C28.4128 12.9886 30.3439 12.0295 31.5393 11.6459C32.4957 11.3389 35.9227 10.1113 37.5166 9.53587ZM97.3814 96.8127C100.968 97.3242 109.759 100.361 116.233 108.418C117.41 109.952 115.313 112.062 114.118 112.925C111.911 115.035 106.356 118.507 101.795 115.515C96.094 111.774 87.0821 105.253 86.5303 103.91C85.9786 102.567 89.1971 96.8127 97.3814 96.8127Z" stroke="white"/>
</svg>
