<svg width="112" height="190" viewBox="0 0 112 190" fill="none" xmlns="http://www.w3.org/2000/svg">
<path d="M87.4641 50.6051L110.28 31.0046M87.4641 50.6051V31.0046M87.4641 50.6051L86.2633 50.4638M110.28 31.0046V162.443L86.2633 188.5M110.28 31.0046L111 30.4189V9.32884M87.4641 31.0046L110.28 10.0206L111 9.32884M87.4641 31.0046L1 21.2835M1 21.2835V40.5528L3.16712 40.8087M1 21.2835L34.7444 1.5L111 9.32884M86.2633 50.4638V188.5M86.2633 50.4638L3.16712 40.8087M86.2633 188.5L3.16712 175.817V40.8087M35.7812 4.88306L11.9336 19.4018L86.2633 27.9128L104.214 11.8921L35.7812 4.88306ZM38.7111 78.9681C41.2729 80.4285 46.9727 85.1941 49.2783 92.5731L44.2349 95.5708L57.684 97.4156L65.3692 86.5777L60.0856 88.4224C58.8848 84.9635 52.9288 78.2302 38.7111 78.9681ZM35.589 78.9681C33.9879 78.7375 29.7771 80.3978 25.7424 88.8836L35.589 96.4932L44.2349 84.9635C42.6338 82.965 38.6631 78.9681 35.589 78.9681ZM52.4004 100.874L62.7274 96.4932C65.6894 100.26 70.4606 108.669 65.8495 112.174C62.7754 114.203 60.0856 114.71 59.1249 114.71L52.4004 100.874ZM52.4004 115.402C56.5632 116.324 65.7054 117.339 68.9716 114.018C68.2511 118.092 63.8321 126.286 51.9201 126.47V131.543L45.1955 119.553L52.4004 109.176V115.402ZM43.2742 114.018V125.779C36.3896 126.47 23.773 124.718 28.3842 112.174C28.7044 112.481 32.1307 113.28 43.2742 114.018ZM16.8564 93.9567L21.8998 97.4156C19.258 99.5678 16.28 106.87 25.5022 118.861C25.8865 110.744 29.8251 105.948 31.7464 104.564L37.03 108.023L30.5456 95.3402L16.8564 93.9567Z" stroke="white"/>
</svg>
