<svg width="50" height="50" viewBox="0 0 50 50" fill="none" xmlns="http://www.w3.org/2000/svg">
<path fill-rule="evenodd" clip-rule="evenodd" d="M25 0C11.1929 0 0 11.1929 0 25C0 38.8071 11.1929 50 25 50C38.8071 50 50 38.8071 50 25C50 11.1929 38.8071 0 25 0ZM19.5034 11.7472C20.9257 11.6825 21.3801 11.6667 25.0012 11.6667H24.9971C28.6193 11.6667 29.0721 11.6825 30.4944 11.7472C31.9138 11.8122 32.8833 12.0369 33.7333 12.3667C34.6111 12.707 35.3527 13.1625 36.0944 13.9042C36.8361 14.6453 37.2917 15.3892 37.6333 16.2662C37.9611 17.1139 38.1861 18.0828 38.2528 19.5023C38.3167 20.9245 38.3333 21.379 38.3333 25.0001C38.3333 28.6213 38.3167 29.0746 38.2528 30.4969C38.1861 31.9158 37.9611 32.8849 37.6333 33.733C37.2917 34.6097 36.8361 35.3536 36.0944 36.0947C35.3536 36.8364 34.6108 37.293 33.7341 37.6336C32.8858 37.9633 31.9158 38.1881 30.4963 38.2531C29.0741 38.3178 28.621 38.3336 24.9996 38.3336C21.3787 38.3336 20.9245 38.3178 19.5023 38.2531C18.0831 38.1881 17.1139 37.9633 16.2656 37.6336C15.3892 37.293 14.6453 36.8364 13.9045 36.0947C13.1631 35.3536 12.7075 34.6097 12.3667 33.7327C12.0372 32.8849 11.8125 31.916 11.7472 30.4966C11.6828 29.0743 11.6667 28.6213 11.6667 25.0001C11.6667 21.379 11.6833 20.9243 11.7469 19.502C11.8108 18.0831 12.0358 17.1139 12.3664 16.2659C12.7081 15.3892 13.1636 14.6453 13.9053 13.9042C14.6464 13.1628 15.3903 12.7072 16.2673 12.3667C17.1151 12.0369 18.084 11.8122 19.5034 11.7472Z" fill="white"/>
<path fill-rule="evenodd" clip-rule="evenodd" d="M23.8051 14.0695C24.0374 14.0691 24.2872 14.0692 24.5568 14.0693L25.0012 14.0695C28.5613 14.0695 28.9832 14.0822 30.3891 14.1461C31.6891 14.2056 32.3946 14.4228 32.8646 14.6053C33.4869 14.847 33.9305 15.1359 34.3969 15.6025C34.8636 16.0692 35.1524 16.5137 35.3947 17.1359C35.5772 17.6053 35.7947 18.3109 35.8538 19.6109C35.9177 21.0165 35.9316 21.4387 35.9316 24.9971C35.9316 28.5555 35.9177 28.9777 35.8538 30.3832C35.7944 31.6833 35.5772 32.3888 35.3947 32.8583C35.153 33.4805 34.8636 33.9236 34.3969 34.39C33.9302 34.8566 33.4872 35.1455 32.8646 35.3872C32.3952 35.5705 31.6891 35.7872 30.3891 35.8466C28.9835 35.9105 28.5613 35.9244 25.0012 35.9244C21.4409 35.9244 21.019 35.9105 19.6134 35.8466C18.3134 35.7866 17.6078 35.5694 17.1375 35.3869C16.5153 35.1452 16.0709 34.8563 15.6042 34.3897C15.1375 33.923 14.8486 33.4797 14.6064 32.8572C14.4239 32.3877 14.2064 31.6821 14.1472 30.3821C14.0833 28.9766 14.0706 28.5543 14.0706 24.9937C14.0706 21.4332 14.0833 21.0131 14.1472 19.6076C14.2067 18.3076 14.4239 17.602 14.6064 17.132C14.8481 16.5098 15.1375 16.0653 15.6042 15.5986C16.0709 15.132 16.5153 14.8431 17.1375 14.6009C17.6075 14.4175 18.3134 14.2009 19.6134 14.1411C20.8434 14.0856 21.3201 14.0689 23.8051 14.0661V14.0695ZM32.1185 16.2834C31.2352 16.2834 30.5185 16.9992 30.5185 17.8828C30.5185 18.7662 31.2352 19.4829 32.1185 19.4829C33.0019 19.4829 33.7185 18.7662 33.7185 17.8828C33.7185 16.9995 33.0019 16.2828 32.1185 16.2828V16.2834ZM18.1539 25.0001C18.1539 21.2188 21.2196 18.153 25.0009 18.1528C28.7824 18.1528 31.8474 21.2187 31.8474 25.0001C31.8474 28.7816 28.7827 31.846 25.0012 31.846C21.2198 31.846 18.1539 28.7816 18.1539 25.0001Z" fill="white"/>
<path d="M25.0013 20.5557C27.4557 20.5557 29.4457 22.5454 29.4457 25.0002C29.4457 27.4546 27.4557 29.4446 25.0013 29.4446C22.5465 29.4446 20.5568 27.4546 20.5568 25.0002C20.5568 22.5454 22.5465 20.5557 25.0013 20.5557Z" fill="white"/>
</svg>
