<svg width="50" height="50" viewBox="0 0 50 50" fill="none" xmlns="http://www.w3.org/2000/svg">
<path fill-rule="evenodd" clip-rule="evenodd" d="M0 25C0 38.8071 11.1929 50 25 50C38.8071 50 50 38.8071 50 25C50 11.1929 38.8071 0 25 0C11.1929 0 0 11.1929 0 25ZM25.0288 40C25.0288 40 18.3176 29.9631 15.942 24.383C15.3377 23.0824 15 21.6303 15 20.0986C15 14.5213 19.4772 10 25 10C30.5228 10 35 14.5213 35 20.0986C35 21.3259 34.7832 22.5021 34.3862 23.5902H34.3968C32.8048 27.8238 25.0288 40 25.0288 40Z" fill="white"/>
<path d="M25 25.8333C28.2216 25.8333 30.8333 23.2217 30.8333 20C30.8333 16.7783 28.2216 14.1667 25 14.1667C21.7783 14.1667 19.1666 16.7783 19.1666 20C19.1666 23.2217 21.7783 25.8333 25 25.8333Z" fill="white"/>
</svg>
