<svg width="74" height="52" viewBox="0 0 74 52" fill="none" xmlns="http://www.w3.org/2000/svg">
<rect x="11" width="52" height="52" rx="26" fill="#23A4DD"/>
<path d="M20.995 24.9516H8.61275L7.27209 25.5506L8.61275 26.4492H22.1097L23.2997 25.0015L30.0482 41.9874L31.66 41.9998L37.1582 14.8674L41.8473 29.3197H43.1987L45.5035 24.8517L47.055 26.7238H65.5531L66.728 25.7129L65.4928 25.0514H48.1095L45.6691 21.8564H44.4942L42.8071 25.2885L37.3541 10H35.7874L30.705 37.6932L24.2487 21.9563H22.8629L20.995 24.9516Z" fill="white"/>
<path d="M8.39381 25.5428C8.39381 27.5626 6.63593 29.1999 4.46747 29.1999C2.29902 29.1999 0.541138 27.5626 0.541138 25.5428C0.541138 23.523 2.29902 21.8857 4.46747 21.8857C6.63593 21.8857 8.39381 23.523 8.39381 25.5428ZM2.44355 25.5428C2.44355 26.5839 3.34969 27.428 4.46747 27.428C5.58525 27.428 6.49139 26.5839 6.49139 25.5428C6.49139 24.5017 5.58525 23.6577 4.46747 23.6577C3.34969 23.6577 2.44355 24.5017 2.44355 25.5428Z" fill="white"/>
<path d="M73.4588 25.5428C73.4588 27.5626 71.7009 29.1999 69.5325 29.1999C67.364 29.1999 65.6061 27.5626 65.6061 25.5428C65.6061 23.523 67.364 21.8857 69.5325 21.8857C71.7009 21.8857 73.4588 23.523 73.4588 25.5428ZM67.5086 25.5428C67.5086 26.5839 68.4147 27.428 69.5325 27.428C70.6503 27.428 71.5564 26.5839 71.5564 25.5428C71.5564 24.5017 70.6503 23.6577 69.5325 23.6577C68.4147 23.6577 67.5086 24.5017 67.5086 25.5428Z" fill="white"/>
</svg>
