<svg width="193" height="173" viewBox="0 0 193 173" fill="none" xmlns="http://www.w3.org/2000/svg">
<path d="M25.7985 153.335C25.0693 152.607 25.7985 147.755 25.7985 145.329C25.7985 144.29 26.4955 142.045 27.3296 139.75C28.0533 137.758 28.8803 135.727 29.4449 134.412L33.0913 126.326C33.0574 126.634 33.0566 126.991 33.0975 127.377C33.3461 129.725 35.1337 133.195 40.3841 133.897C40.4643 133.908 40.5453 133.918 40.6272 133.927C41.1272 133.985 41.3697 133.925 41.8426 133.927C44.5234 133.94 47.0381 133.21 49.2152 132.229C51.1742 131.347 53.0568 130.333 55.0922 129.674C55.2129 129.635 55.334 129.597 55.4558 129.561C55.9688 129.407 56.4257 129.278 56.832 129.169C57.2304 129.063 57.5803 128.977 57.8867 128.906C58.4095 128.786 58.806 128.713 59.1022 128.669C59.5286 128.605 59.747 128.602 59.8344 128.603C59.8334 128.599 59.8324 128.595 59.8314 128.59C59.8314 124.223 60.0745 112.822 61.0469 110.396C61.8248 108.455 62.0193 104.573 62.0193 102.875C60.8848 102.875 58.1298 102.73 56.1851 102.147C55.8654 102.052 55.5389 101.99 55.2127 101.954C54.8024 101.91 54.3926 101.909 53.9972 101.937C52.7948 102.022 51.7266 102.378 51.1889 102.633C51.3729 103.429 51.3553 104.218 50.837 105.058C49.2812 107.581 47.9199 108.859 47.4337 109.183C48.351 108.115 50.0469 105.737 49.9098 104.331C49.8137 104.007 49.5243 103.215 49.1354 102.633C48.3251 103.603 46.8017 106.077 47.1906 108.212C47.6768 110.881 48.163 110.881 47.4337 112.094C47.4337 111.339 47.1373 109.627 45.9913 108.455C46.148 109.102 46.2669 110.687 45.489 111.851C44.5166 113.307 46.2183 113.307 45.9752 114.52C45.8131 114.277 45.3431 113.743 44.7597 113.549C44.5619 113.483 44.3998 113.364 44.2735 113.201C44.5394 114.087 43.4119 115.581 42.815 116.218C43.0581 115.733 43.2525 114.568 42.0857 113.792C40.6272 112.821 40.8702 111.123 40.6272 110.638C40.487 110.358 40.3385 109.306 40.2361 108.408C40.1693 109.828 39.1276 110.802 38.9255 111.609C38.731 112.385 39.3307 113.226 39.6548 113.549C38.6824 112.579 37.2239 112.094 37.2239 109.183C37.2239 106.271 33.8206 102.147 30.1742 95.1121C27.2571 89.4839 29.9311 84.6805 31.6327 82.9823C31.4383 82.206 31.2276 80.2329 31.1466 79.3434C31.1268 79.2057 31.1091 79.0675 31.0934 78.9287C30.7215 75.6428 31.4685 71.9343 33.3344 63.0896C34.8902 55.7147 41.7616 54.0327 45.0028 54.1136C45.6511 54.0327 47.3851 54.065 49.1354 54.8413C50.99 55.8154 52.5955 58.2563 53.8475 60.9062V0.500122H189.643V79.3434H68.5577C68.3979 79.9158 68.2318 80.4828 68.0614 81.0416C67.2001 83.8652 66.2299 86.4777 65.4225 88.4929C64.5537 90.6616 63.8736 92.1388 63.7209 92.4436C63.332 93.2199 62.4244 99.7214 62.0193 102.875C62.0193 104.573 61.8248 108.455 61.0469 110.396C60.0745 112.822 59.8314 124.223 59.8314 128.59C59.8903 128.61 59.9046 128.605 59.8344 128.603C59.747 128.602 59.5286 128.605 59.1022 128.669C58.806 128.713 58.4095 128.786 57.8867 128.906L60.0745 131.986L59.1022 132.472L56.832 129.169C56.4257 129.278 55.9688 129.407 55.4558 129.561C55.334 129.597 55.2129 129.635 55.0922 129.674L57.4005 133.685L51.0801 136.353L49.2152 132.229C47.0381 133.21 44.5234 133.94 41.8426 133.927V139.75H41.478C41.2754 144.424 41.3564 154.166 43.3012 155.737C46.1571 155.832 49.2622 155.822 52.5387 155.65C50.3508 155.054 47.6768 149.696 46.9475 148.483C46.3641 147.513 46.3803 146.785 46.4614 146.542C49.6216 145.41 56.4768 142.661 58.616 140.72C60.8038 139.264 61.5331 140.235 61.5331 141.205C62.4244 144.909 64.6933 152.638 66.638 153.918C61.7523 154.887 56.9875 155.417 52.5387 155.65C49.2622 155.822 46.1571 155.832 43.3012 155.737C40.2244 155.636 37.4369 155.413 35.036 155.14C29.5638 154.518 26.1002 153.636 25.7985 153.335Z" fill="#444242"/>
<path d="M1.73241 27.1855C1.89447 26.8621 2.5103 26.2152 3.67715 26.2152C3.92024 25.73 4.79537 24.9051 6.35116 25.4874C6.59425 25.0022 7.42077 24.3229 8.78208 25.4874C10.4837 26.9429 11.4561 28.3985 9.99754 29.8541C8.53899 31.3097 7.56662 32.28 7.56662 33.493C7.56662 34.706 7.56662 35.1912 8.2959 36.1616C9.02517 37.1319 12.1182 43.1108 12.7501 43.9246C14.7501 46.5001 18.2388 52.9753 19.7501 57.5C20.4182 59.5 20.5347 58.802 21.7501 60.5001C22.9656 62.1983 28.2295 74.4915 28.4725 76.1897C29.3639 76.6749 31.1466 77.9849 31.1466 79.3434M31.1466 79.3434C30.6604 75.9471 31.3897 72.3082 33.3344 63.0896C34.8902 55.7147 41.7616 54.0327 45.0028 54.1136C45.6511 54.0327 47.3851 54.065 49.1354 54.8413C50.99 55.8154 52.5955 58.2563 53.8475 60.9062M31.1466 79.3434C31.2276 80.2329 31.4383 82.206 31.6327 82.9823M1.73241 27.4282C1.73241 27.6707 1.82965 28.3015 2.21859 28.8837C2.05653 30.1776 1.82965 33.0078 2.21859 33.9782C2.70478 35.1912 8.77343 49.5699 9.75012 51.5C10.6063 53.192 11.0347 53.9162 12.2501 56C12.5239 56.4693 15.7501 60.6396 15.7501 62.3378C15.7501 64.0359 16.3179 65.5155 17.2903 70.1248C18.2627 74.7341 20.6936 78.8582 21.1798 79.8286C21.666 80.799 24.8262 88.562 25.0693 89.5324C25.3123 90.5028 27.9864 93.4139 28.4725 94.6269C28.9587 95.8399 29.4449 98.5084 29.688 99.4788C29.9311 100.449 31.6327 103.603 31.8758 104.816C32.1189 106.029 32.8482 111.609 33.3344 113.549C33.7233 115.102 33.8206 120.989 33.8206 123.738V124.709M33.8206 128.59V124.709M33.8206 124.709L33.0913 126.326M29.4449 134.412L33.0913 126.326M29.4449 134.412L30.1742 134.17L33.0975 127.377M29.4449 134.412C28.8803 135.727 28.0533 137.758 27.3296 139.75M25.7985 153.335C25.0693 152.607 25.7985 147.755 25.7985 145.329C25.7985 144.29 26.4955 142.045 27.3296 139.75M25.7985 153.335C26.1002 153.636 29.5638 154.518 35.036 155.14M25.7985 153.335C21.4229 153.982 11.4075 156.586 6.35116 161.826C1.29484 167.066 0.354888 168.214 0.516949 168.133C0.922112 168.457 2.17 169.783 3.92027 172.5M70.2844 149.939C69.6374 151.322 69.0013 152.249 68.4598 152.85M73.2015 153.335C73.3636 149.777 73.0556 142.224 70.5275 140.477C67.3673 138.294 66.3949 137.324 63.964 138.294M63.964 138.294C64.9364 140.041 66.4759 141.933 67.1242 142.661M63.964 138.294C63.6399 138.132 62.943 137.227 62.7485 134.898C62.5054 133.442 60.8038 132.957 59.8314 128.59M59.8314 128.59C59.8314 124.223 60.0745 112.822 61.0469 110.396C61.8248 108.455 62.0193 104.573 62.0193 102.875M59.8314 128.59C59.9635 128.634 59.8714 128.554 59.1022 128.669M62.0193 102.875C62.4244 99.7214 63.332 93.2199 63.7209 92.4436C63.8736 92.1388 64.5538 90.6616 65.4225 88.4929C66.2299 86.4777 67.2001 83.8652 68.0614 81.0416C68.2318 80.4828 68.3979 79.9158 68.5577 79.3434M62.0193 102.875C60.8848 102.875 58.1298 102.73 56.1851 102.147C55.8654 102.052 55.5389 101.99 55.2127 101.954M55.2127 83.9527C54.5644 88.8378 53.6569 99.2772 55.2127 101.954M55.2127 83.9527C55.0829 83.9959 54.8839 83.993 54.7265 83.8332M55.2127 83.9527C55.892 82.7663 56.8265 81.1002 57.7799 79.3434M54.4834 82.9823C54.6455 85.2466 54.2403 90.7454 51.3232 94.6269C48.6486 98.1858 50.6824 100.439 51.1889 102.633M54.4834 82.9823C54.4834 83.4347 54.5891 83.6938 54.7265 83.8332M54.4834 82.9823C54.4834 82.4489 54.6245 81.0708 54.7825 79.3434M49.8647 104.088C49.8867 104.165 49.9016 104.246 49.9098 104.331M49.9098 104.331C50.0469 105.737 48.351 108.115 47.4337 109.183C47.9199 108.859 49.2812 107.581 50.837 105.058C51.3553 104.218 51.3729 103.429 51.1889 102.633M49.9098 104.331C49.8137 104.007 49.5243 103.215 49.1354 102.633C48.3251 103.603 46.8017 106.077 47.1906 108.212C47.6768 110.881 48.163 110.881 47.4337 112.094C47.4337 111.339 47.1373 109.627 45.9913 108.455M44.7597 104.816C44.5166 105.463 44.3708 107.048 45.7321 108.212C45.823 108.29 45.9093 108.371 45.9913 108.455M45.9913 108.455C46.148 109.102 46.2669 110.687 45.489 111.851C44.5166 113.307 46.2183 113.307 45.9752 114.52C45.8131 114.277 45.3431 113.743 44.7597 113.549C44.5619 113.483 44.3998 113.364 44.2735 113.201M44.0304 111.123C43.8533 112.007 43.9343 112.762 44.2735 113.201M31.6327 82.9823C32.2162 82.206 32.6861 81.365 32.8482 81.0416M31.6327 82.9823C29.9311 84.6805 27.2571 89.4839 30.1742 95.1121C33.8206 102.147 37.2239 106.271 37.2239 109.183C37.2239 112.094 38.6824 112.579 39.6548 113.549C39.3307 113.226 38.731 112.385 38.9255 111.609C39.1686 110.638 40.6272 109.425 40.141 107.484C40.222 108.374 40.4327 110.25 40.6272 110.638C40.8702 111.123 40.6272 112.821 42.0857 113.792C43.2525 114.568 43.0581 115.733 42.815 116.218C43.4119 115.581 44.5394 114.087 44.2735 113.201M51.1889 102.633C51.7266 102.378 52.7948 102.022 53.9972 101.937M55.2127 101.954C54.8024 101.91 54.3926 101.909 53.9972 101.937M54.7265 83.8332C54.0783 88.8272 53.0249 99.4394 53.9972 101.937M33.0913 126.326C33.0574 126.634 33.0566 126.991 33.0975 127.377M49.2152 132.229L51.0801 136.353L57.4005 133.685L55.0922 129.674M49.2152 132.229C51.1742 131.347 53.0568 130.333 55.0922 129.674M49.2152 132.229C47.0381 133.21 44.5234 133.94 41.8426 133.927M55.0922 129.674C55.2129 129.635 55.334 129.597 55.4558 129.561C55.9688 129.407 56.4257 129.278 56.832 129.169M41.8426 133.927C41.3697 133.925 41.1272 133.985 40.6272 133.927C40.5453 133.918 40.4643 133.908 40.3841 133.897M41.8426 133.927V139.75H41.478M40.3841 133.897L41.1133 139.75H41.478M40.3841 133.897C35.1337 133.195 33.3461 129.725 33.0975 127.377M56.832 129.169L59.1022 132.472L60.0745 131.986L57.8867 128.906M56.832 129.169C57.2304 129.063 57.5803 128.977 57.8867 128.906M57.8867 128.906C58.4095 128.786 58.806 128.713 59.1022 128.669M66.638 153.918C66.7999 153.886 66.962 153.853 67.1242 153.82C67.3793 153.778 67.8619 153.513 68.4598 152.85M66.638 153.918C64.6933 152.638 62.4244 144.909 61.5331 141.205C61.5331 140.235 60.8038 139.264 58.616 140.72C56.4768 142.661 49.6216 145.41 46.4614 146.542C46.3803 146.785 46.3641 147.513 46.9475 148.483C47.6768 149.696 50.3508 155.054 52.5387 155.65M66.638 153.918C61.7523 154.887 56.9875 155.417 52.5387 155.65M52.5387 155.65C49.2622 155.822 46.1571 155.832 43.3012 155.737M47.9199 147.27C51.2422 146.138 58.3243 143.437 60.0745 141.69M27.3296 139.75C28.4399 142.014 31.7786 146.542 36.2515 146.542C36.4136 146.704 36.6891 147.124 36.4946 147.513C36.2515 147.998 34.5498 152.579 35.036 155.14M35.036 155.14C37.4369 155.413 40.2244 155.636 43.3012 155.737M41.478 139.75C41.2754 144.424 41.3564 154.166 43.3012 155.737M65.4225 142.418C66.557 143.874 68.68 147.221 68.0966 148.968C67.5131 150.715 67.2052 152.122 67.1242 152.607M71.4998 146.3C71.3618 146.92 71.0708 148.138 70.8674 148.726M70.7706 148.968C70.7994 148.911 70.8321 148.828 70.8674 148.726M70.8674 148.726C71.0782 148.887 71.5971 149.162 71.986 148.968M53.0249 71.0952C53.2594 74.3298 53.2206 81.6723 51.1889 85.1657C48.6492 89.5324 48.6492 90.7454 48.4061 92.4436M47.4337 83.8332C47.4337 83.9527 46.7045 89.0472 44.7597 90.5028C43.2039 91.6672 43.1391 95.0312 43.3012 96.5676M33.5775 84.1953C32.281 85.1554 29.8825 88.1493 30.6604 92.4436M38.9255 65.5155C39.0876 68.7501 38.5852 75.9956 38.1962 78.1304M60.0745 112.094C59.3452 113.792 57.4491 117.334 55.6989 117.916M52.0525 118.886C48.4061 118.886 40.5785 118.692 38.4393 117.916M34.7929 114.277C34.955 115.005 35.5222 116.606 36.4946 117.188M34.7929 117.431C36.3325 118.967 39.6062 122.04 40.3841 122.04M45.489 122.283C48.9733 122.364 56.3309 121.992 57.8867 119.857M55.4558 123.01C54.3213 124.062 50.6912 126.552 45.2459 128.105M53.9972 128.59C56.2439 128.127 58.3366 124.354 59.1022 122.525V128.669M37.71 123.01C35.7653 123.01 34.4688 119.614 34.0637 117.916C34.2257 119.533 34.7443 123.01 35.5222 123.981C36.3001 124.951 36.3325 128.105 36.2515 129.561M53.8475 60.9062V0.500122H189.643V79.3434H68.5577M53.8475 60.9062C54.0709 61.3791 54.2831 61.8587 54.4834 62.3378M68.5577 79.3434C68.6252 79.1017 68.6916 78.859 68.7566 78.6156M54.4834 62.3378C55.397 64.5227 56.064 66.6975 56.4281 68.1841C57.4005 72.4537 56.023 77.0792 55.2127 78.8582C55.2232 78.7811 55.2339 78.7001 55.2448 78.6156M54.4834 62.3378V1.22791H188.913V78.6156H68.7566M68.7566 78.6156C69.5886 75.5029 70.2086 72.2729 70.2844 69.397C70.7706 63.0896 71.0137 63.8174 71.4998 61.634C71.986 59.4507 72.9584 57.0247 73.2015 55.5691C73.4446 54.1136 76.8479 42.2264 76.8479 38.8301C77.3341 36.8894 77.5772 35.1912 77.8202 34.2208C78.0633 33.2504 78.3064 28.8837 78.0633 27.1856C78.3064 26.943 78.5495 25.4874 78.5495 25.0022C78.5495 24.517 77.091 24.0318 76.6048 24.0318C76.1186 24.0318 75.6324 23.0614 74.9031 23.304C74.1739 23.5466 73.6877 22.8189 72.4722 23.304C71.2568 23.7892 71.2568 23.0614 70.2844 24.2744C69.312 25.4874 69.312 25.73 70.0413 26.7004C70.7706 27.6707 73.4446 30.5819 73.4446 32.0374C73.4446 33.2019 71.0137 40.4474 69.7982 43.9246C68.6638 46.9166 66.3949 53.3373 66.3949 55.0839C66.3949 56.0543 64.2071 60.1784 63.964 61.3914C63.7209 62.6044 62.5054 68.4266 61.7762 71.0952C61.4245 72.3819 59.819 75.5543 58.173 78.6156M57.7799 79.3434H54.7825M57.7799 79.3434C57.9108 79.1022 58.042 78.8593 58.173 78.6156M54.7825 79.3434C54.8041 79.107 54.8261 78.8639 54.848 78.6156M58.173 78.6156H55.2448M55.2448 78.6156C55.4835 76.7506 55.7708 73.1796 55.2127 72.0656C55.2127 74.1276 55.0304 76.5536 54.848 78.6156M55.2448 78.6156H54.848M68.4598 152.85C71.2558 152.85 77.8202 153.674 81.7097 156.974C85.3561 159.642 85.5992 160.37 86.5716 160.613M86.5716 160.613C84.7889 164.332 80.786 171.918 79.0357 172.5M86.5716 160.613L75.6324 167.648M18.992 168.133H52.0525" stroke="white"/>
<path d="M180.455 81.6366C180.58 81.8357 181.003 82.2325 181.608 82.7467M181.608 82.7467C183.39 84.2621 186.758 86.7969 188.791 88.2931C188.953 88.412 189.147 88.4789 189.347 88.4847C191.123 88.5356 191.961 88.4516 192.301 88.3544C192.462 88.3083 192.433 88.1619 192.31 88.0482L183.176 79.6222C182.991 79.4518 182.749 79.3572 182.498 79.3572H180.326V79.3572C179.973 79.3572 179.686 79.6436 179.689 79.9974C179.704 81.363 179.767 83.353 179.933 84.4454C179.989 84.819 180.32 85.0557 180.698 85.0557V85.0557C181.2 85.0557 181.608 84.6484 181.608 84.146V82.7467Z" stroke="white" stroke-linecap="round" stroke-linejoin="round"/>
</svg>
