<svg width="212" height="98" viewBox="0 0 212 98" fill="none" xmlns="http://www.w3.org/2000/svg">
<path d="M30.6231 66.9254C28.4335 69.1119 27.8155 76.4492 28.3936 80.0361H26.2878C23.4434 76.9489 10.721 75.5878 7.22883 75.2141L7.21228 75.2124C3.74401 74.8413 2.50533 72.7387 1.39052 71.1307C0.27572 69.5228 0.523454 64.4517 0.523454 63.957C0.523454 63.5612 2.83564 63.0499 3.99173 62.8438C3.19348 61.5684 3.19902 55.9268 3.36086 51.712C3.39993 50.6947 3.4481 49.7605 3.49627 48.991C4.1156 37.8592 8.32708 9.65882 8.69868 5.94824C8.99596 2.97978 11.1347 1.90783 12.167 1.74292C18.2364 0.135001 85.3723 1.61923 91.3179 1.74292C96.0744 1.84187 97.5939 7.39124 97.759 10.1536C108.362 10.1536 114.977 13.122 116.958 14.6063L131.575 25.2432C141.071 31.2626 160.361 43.3014 161.551 43.3014C173.318 46.1049 197.844 51.9347 201.807 52.8252C205.771 53.7158 207.505 55.5051 207.877 56.2884C208.06 56.5502 208.31 56.9727 208.594 57.5253C209.368 59.0315 210.392 61.5049 211 64.328C211.223 65.3631 211.39 66.4452 211.469 67.5438C211.766 71.6997 209.859 75.2124 208.868 76.4492L208.992 80.1598C208.694 80.7535 198.545 81.3142 193.508 81.5204C193.632 73.8518 191.031 68.9044 188.925 66.307C186.819 63.7096 181.741 59.5043 171.708 61.978C163.681 63.957 160.353 74.9238 159.693 80.1598H157.339C158.082 82.4686 160.535 87.1357 164.399 87.3336C159.321 73.4808 170.692 67.5438 175.671 67.1728C179.387 66.8959 186.269 67.5439 189.916 73.9755C194.573 82.1883 190.205 88.7766 187.439 91.0442C177.926 98.8958 166.877 92.7758 164.399 87.3336C160.535 87.1357 158.082 82.4686 157.339 80.1598H64.4388C63.7452 85.4041 60.1448 87.7871 58.2455 88.4468C57.0894 91.4565 52.6716 97.3769 44.2486 96.9811C33.7198 96.4864 29.2606 87.8283 30.9947 79.294C31.5315 75.6247 34.9338 68.2612 44.2486 68.1623C53.5633 68.0633 57.461 73.9755 58.2455 76.944C59.1125 79.294 60.3264 84.8846 58.2455 88.4468C60.1448 87.7871 63.7452 85.4041 64.4388 80.1598H60.8467V80.0361C60.8467 77.8098 60.8402 72.9263 58.9887 69.1518C56.0159 63.0912 51.9462 62.7057 44.2486 62.4727C36.5509 62.2398 32.8527 64.6991 30.6231 66.9254Z" fill="#444242"/>
<path d="M28.2697 78.3045L30.9947 79.294M30.9947 79.294C31.5315 75.6247 34.9338 68.2612 44.2486 68.1623C53.5633 68.0633 57.461 73.9755 58.2455 76.944C59.1125 79.294 60.3264 84.8846 58.2455 88.4468M30.9947 79.294C29.2606 87.8283 33.7198 96.4864 44.2486 96.9811C52.6716 97.3769 57.0894 91.4565 58.2455 88.4468M58.2455 88.4468C60.1448 87.7871 63.7452 85.4041 64.4388 80.1598M64.4388 80.1598H60.8467V80.0361C60.8467 77.8098 60.8402 72.9263 58.9887 69.1518C56.0159 63.0912 51.9462 62.7057 44.2486 62.4727C36.5509 62.2398 32.8527 64.6991 30.6231 66.9254C28.4335 69.1119 27.8155 76.4492 28.3936 80.0361H26.2878C23.4389 76.944 10.6806 75.5834 7.21228 75.2124C3.74401 74.8413 2.50533 72.7387 1.39052 71.1307C0.27572 69.5228 0.523454 64.4517 0.523454 63.957C0.523454 63.5612 2.83564 63.0499 3.99173 62.8438M64.4388 80.1598H157.339M161.551 43.3014C173.318 46.105 197.844 51.9347 201.807 52.8252C205.771 53.7158 207.505 55.5051 207.877 56.2884C208.06 56.5502 208.31 56.9727 208.594 57.5253M161.551 43.3014C160.023 43.7961 156.175 44.6372 153.004 44.0435M161.551 43.3014C160.361 43.3014 141.071 31.2626 131.575 25.2433M153.004 44.0435V51.2173M153.004 44.0435C151.317 42.6799 149.253 41.0087 147.058 39.2293M129.841 25.1196L131.575 25.2433M129.841 25.1196C128.751 24.1821 126.496 23.8219 125.505 23.759L99.1216 22.1511L97.759 10.1536M129.841 25.1196C130.043 25.3886 137.161 31.1959 144.085 36.8176M131.575 25.2433L116.958 14.6063C114.977 13.122 108.362 10.1536 97.759 10.1536M189.916 65.6886C189.957 65.235 190.585 64.328 192.765 64.328C194.945 64.328 199.619 64.328 201.683 64.328M202.427 56.9069C203.087 58.7209 204.433 62.7448 204.532 64.328H211M202.427 56.9069C203.648 56.9069 206.592 57.0305 208.594 57.5253M202.427 56.9069C200.247 55.6205 168.57 52.5778 153.004 51.2173M208.594 57.5253C209.368 59.0315 210.392 61.5049 211 64.328M211 64.328C211.223 65.3631 211.39 66.4452 211.469 67.5438C211.766 71.6997 209.859 75.2124 208.868 76.4492L208.992 80.1598C208.694 80.7535 198.545 81.3142 193.508 81.5204C193.632 73.8518 191.031 68.9044 188.925 66.307C186.819 63.7096 181.741 59.5043 171.708 61.978C163.681 63.957 160.353 74.9238 159.693 80.1598H157.339M206.143 59.1332C206.06 59.8341 206.068 61.409 206.762 62.1017M153.004 51.2173C153.128 58.556 152.905 73.8766 151.022 76.4492L106.677 75.9545M104.2 51.5884C104.902 55.1753 106.232 62.7696 105.934 64.4517M147.801 65.4412L111.261 64.4517M94.4146 64.4517L62.0853 63.8333M22.8195 19.5537C21.746 19.5537 19.5742 20.0979 19.4751 22.2748C19.376 24.4517 19.0209 34.0662 18.8558 38.6013M87.9735 21.6564C88.0148 21.2853 87.5524 20.5432 85.3723 20.5432C83.1923 20.5432 71.1689 20.5432 65.4297 20.5432M54.9011 20.5432L31.4902 20.1721M86.7349 10.1536C86.6936 9.70005 86.1899 8.79302 84.5053 8.79302C82.8207 8.79302 64.9756 8.46319 56.2636 8.29827M28.2697 8.29827H40.1609M25.2969 8.29827C23.893 8.00967 21.0606 8.0509 20.9615 10.5246M21.457 15.7194C21.4983 16.0493 22.324 16.6842 25.2969 16.5852M32.2334 16.5852L74.1004 17.08M97.759 10.1536C97.5939 7.39124 96.0744 1.84187 91.3179 1.74292C85.3723 1.61923 18.2364 0.135001 12.167 1.74292M12.167 1.74292C11.1347 1.90783 8.99596 2.97978 8.69868 5.94824C8.32708 9.65882 4.1156 37.8592 3.49627 48.991M12.167 1.74292C11.0934 7.39125 8.45095 24.8227 6.46907 49.362M3.49627 48.991L6.46907 49.362M3.49627 48.991C3.4481 49.7605 3.39993 50.6947 3.36086 51.712M6.46907 49.362C6.47655 50.1089 6.48783 50.9983 6.50304 51.9594M3.99173 62.8438C4.28076 62.9262 5.27995 63.0417 6.96454 62.8438C6.72111 62.1146 6.57181 56.3042 6.50304 51.9594M3.99173 62.8438C3.19348 61.5684 3.19902 55.9268 3.36086 51.712M144.085 36.8176C143.26 36.6765 141.558 36.479 141.36 36.8176C141.272 36.968 141.184 37.971 141.118 39.2293M144.085 36.8176C145.087 37.6312 146.086 38.4409 147.058 39.2293M147.058 39.2293C147.058 41.4525 147.058 46.0225 147.058 46.5172C147.058 47.012 146.232 46.9708 145.819 46.8883C145.636 46.7886 145.351 46.6487 145.031 46.5172M145.031 46.5172C144.556 46.3225 144.004 46.1462 143.59 46.1462C142.723 46.1462 141.36 45.6514 141.112 45.033C140.953 44.6344 140.999 41.5118 141.118 39.2293M145.031 46.5172L106.677 45.5277L102.961 25.1196L123.647 26.1091C124.597 26.2327 127.165 27.0738 129.841 29.4486C132.516 31.8233 138.474 36.9586 141.118 39.2293M3.36086 51.712L6.50304 51.9594M157.339 80.1598C158.082 82.4686 160.535 87.1357 164.399 87.3336M164.399 87.3336C159.321 73.4808 170.692 67.5438 175.671 67.1728C179.387 66.8959 186.269 67.5438 189.916 73.9755C194.573 82.1883 190.205 88.7766 187.439 91.0442C177.926 98.8958 166.877 92.7758 164.399 87.3336Z" stroke="white" stroke-linecap="round" stroke-linejoin="round"/>
<path d="M48.4496 38.3806H38.2837C38.2837 38.3806 38.3605 38.8426 38.3605 39.1239C38.3605 39.4051 38.2837 39.7957 38.2837 39.7957H49.3235L50.2565 38.4278L55.5474 54.4777L56.8111 54.4895L61.1217 28.8521L64.798 42.5081H65.8575L67.6644 38.2863L68.8809 40.0552H83.5527C83.5527 40.0552 83.4035 39.5548 83.399 39.2261C83.395 38.9303 83.4502 38.4749 83.4502 38.4749H69.7076L67.7944 35.456H66.8732L65.5505 38.699L61.2752 24.2529H60.047L55.7009 49.9846L51.0006 35.5504H49.914L48.4496 38.3806Z" stroke="white"/>
<path d="M38.2056 38.994C38.2056 40.5082 36.9761 41.737 35.4579 41.737C33.9397 41.737 32.7101 40.5082 32.7101 38.994C32.7101 37.4797 33.9397 36.251 35.4579 36.251C36.9761 36.251 38.2056 37.4797 38.2056 38.994Z" stroke="white"/>
<path d="M89.0119 38.994C89.0119 40.5082 87.7824 41.737 86.2642 41.737C84.7459 41.737 83.5164 40.5082 83.5164 38.994C83.5164 37.4797 84.7459 36.251 86.2642 36.251C87.7824 36.251 89.0119 37.4797 89.0119 38.994Z" stroke="white"/>
</svg>
