<svg width="163" height="249" viewBox="0 0 163 249" fill="none" xmlns="http://www.w3.org/2000/svg">
<path d="M96.6503 29.9951C96.7864 33.3706 96.9722 38.0371 97.1532 42.6642M53.3879 53.2899C53.5545 54.7083 53.8702 58.2927 53.9345 62.2379M51.1551 46.0197C51.0175 45.537 50.5949 45.0918 50.0394 44.7653M53.9345 62.2379C53.9421 62.7 53.9462 63.167 53.9462 63.636C53.9462 66.0533 54.9891 69.0453 56.5565 72.0248M53.9345 62.2379C47.6727 60.8957 45.751 51.7986 45.5729 47.4178C45.4047 43.8784 48.342 43.7676 50.0394 44.7653M59.529 20.2941C60.2733 19.4553 64.6646 19.3993 76.2755 25.8866C87.165 31.9709 95.5406 30.4993 99.1623 29.385M72.0888 5.19438C72.8792 4.85504 73.0368 4.07244 72.9152 3.237M72.9152 3.237C72.7964 2.42022 72.4108 1.55294 72.0888 1C71.2515 2.49133 68.4605 5.58585 63.9947 6.03325C52.6072 5.58585 50.3185 14.6084 50.5976 19.1756C49.1418 22.8134 46.9921 33.0242 50.0394 44.7653M72.9152 3.237C76.9196 2.58454 86.2122 2.90145 91.3473 9.38876C97.766 17.4979 100.743 18.8246 102.791 21.133C105.024 23.6496 103.628 27.8176 101.116 28.6829C101.046 28.6829 100.368 29.0142 99.1623 29.385M62.3201 21.6923C61.8549 25.9799 60.3105 34.7228 57.8544 35.3939C55.3982 36.065 54.7842 40.8932 54.7842 43.2234M99.1623 29.385C99.2942 32.0631 99.1586 37.7659 97.766 41.3698M97.1532 42.6642C97.3804 42.2762 97.584 41.8409 97.766 41.3698M97.1532 42.6642C97.3424 47.5016 97.5262 52.296 97.6424 55.5269M97.766 41.3698C98.9757 40.776 101.283 40.7627 100.837 45.4604C100.39 50.1581 98.5212 54.1288 97.6424 55.5269M97.6424 55.5269C97.7189 57.6542 97.766 59.1037 97.766 59.4417C97.766 60.5343 95.872 68.6241 92.4694 76.2192M56.5565 72.0248C58.6154 75.9385 61.5792 79.8308 64.2731 82.3709C69.018 86.8449 78.2285 94.3948 85.7644 86.8449C88.3926 84.2119 90.6473 80.2865 92.4694 76.2192M56.5565 72.0248C56.71 74.5414 56.9612 79.6865 56.7379 80.1339C56.5622 80.486 53.7243 82.1313 51.4349 83.4069M97.1532 78.7358C97.1532 95.2337 79.9039 110.333 78.5083 110.893C55.5099 103.063 49.7603 89.9208 49.7603 84.3283C50.2359 84.0702 50.8153 83.7521 51.4349 83.4069M97.1532 78.7358C94.2062 78.7358 92.8028 77.0581 92.4694 76.2192M97.1532 78.7358C99.2185 78.4837 104.13 78.5223 107.256 80.6932C129.585 88.299 135.539 91.319 135.725 91.8782C136.377 93.1831 138.07 96.1285 139.633 97.4707C141.587 99.1485 149.96 115.367 149.96 120.12C149.96 124.874 152.751 137.457 155.542 140.813C155.443 140.895 155.108 141.091 154.557 141.216M51.4349 83.4069C50.1324 83.5276 47.3599 83.8809 46.6901 84.3283C37.2935 89.0819 17.7187 99.484 14.5927 103.063C11.3365 106.605 4.82397 117.827 4.82397 134.381C4.82397 144.895 3.89362 152.37 3.42844 154.794H3.98665M3.98665 154.794C4.6379 151.718 11.8017 147.188 35.2467 153.675M3.98665 154.794C2.68415 164.674 0.302434 185.72 1.19558 190.866C2.31201 197.297 4.26588 202.051 3.98678 205.126C3.70767 208.202 12.0809 217.15 16.8257 212.956C21.5705 208.762 24.0825 209.6 27.4318 207.363C29.0537 206.28 30.8719 204.804 32.7596 202.33M50.0395 174.368C47.6206 176.045 42.0012 181.582 38.8752 190.306C36.8599 195.931 34.7703 199.696 32.7596 202.33M50.0395 174.368C48.0299 174.368 47.3415 173.995 47.2484 173.808M50.0395 174.368C52.7375 174.554 58.5244 174.815 60.0874 174.368C62.0411 173.808 68.7397 170.453 69.2979 167.377C69.7445 164.916 69.1118 164.488 68.7397 164.581M68.7397 164.581L63.7158 166.818M68.7397 164.581C70.6004 163.276 73.317 160.051 69.2979 157.59M69.2979 157.59C69.0746 157.59 65.1113 159.081 63.1575 159.827M69.2979 157.59C73.2054 153.396 70.1352 150.6 68.1815 150.32M61.762 152.837L68.1815 150.32M68.1815 150.32C68.1815 150.133 68.2931 149.481 68.7397 148.362C69.577 146.405 68.1815 144.168 65.1113 143.329C62.6551 142.658 58.5057 144.914 56.7381 146.125C52.0491 146.349 51.0629 140.44 51.1559 137.457C51.9932 134.195 51.9932 127.111 45.2947 124.874C43.8991 125.06 41.7779 126.328 44.4573 129.907C45.8529 132.144 43.3409 138.576 42.2245 140.253C41.1081 141.931 41.6663 148.922 41.3872 150.32C41.1081 151.718 41.3872 154.235 36.9214 157.59C32.4557 160.946 22.9661 173.249 19.6168 174.927C16.2675 176.605 9.28982 177.164 4.26588 182.197M32.7596 202.33C33.3261 206.152 34.1192 214.522 32.7596 217.43C31.0602 221.065 27.4318 231.411 28.5482 233.369C29.6647 235.326 31.3393 244.833 29.9438 246.231V247.629C64.6461 247.909 134.274 248.301 135.167 247.629C136.284 246.791 132.376 242.596 132.376 239.52C133.046 231.02 130.981 226.658 129.864 225.539C133.883 222.631 130.422 219.667 128.19 218.548L127.578 178.003M34.9677 221.065C37.9448 218.362 47.8625 215.473 63.7158 225.539M79.6249 199.534C80.7413 198.975 101.953 175.766 103.907 168.496M116.467 169.055C114.606 178.469 108.764 198.248 100.279 202.051M98.8833 147.524C97.5808 146.871 95.4782 144.895 97.4877 142.211C99.9997 138.855 102.791 139.414 107.256 139.974C111.722 140.533 112.56 138.016 113.397 137.177C114.234 136.339 113.955 132.983 113.955 125.992C115.072 120.4 119.63 119.375 121.77 119.561C122.7 119.841 123.78 121.407 120.654 125.433C119.258 127.391 122.328 133.263 122.607 135.22C122.887 137.177 122.328 141.931 123.445 143.609C124.396 145.039 125.145 147.281 127.073 148.605M98.8833 147.524L104.745 147.244M98.8833 147.524C97.0226 148.549 94.3617 151.382 98.6042 154.514M98.6042 154.514H104.745M98.6042 154.514C97.1156 156.099 95.4782 159.715 100.837 161.505M100.837 161.505H106.14M100.837 161.505C100.093 163.369 100.67 167.377 108.931 168.496C111.232 168.416 115.862 168.065 118.421 167.27M122.328 164.86C122.235 165.047 121.547 165.699 119.537 166.818C119.242 166.982 118.862 167.133 118.421 167.27M156.1 163.462C155.356 162.81 153.03 161.505 149.681 161.505C146.332 161.505 143.82 160.573 142.982 160.107C140.656 158.429 135.67 154.85 134.33 153.955C132.655 152.837 130.981 150.32 128.19 149.201C127.777 149.036 127.407 148.834 127.073 148.605M127.073 148.605L126.794 146.125C139.521 139.862 150.518 139.974 154.426 140.813C154.468 140.942 154.512 141.076 154.557 141.216M118.421 167.27C120.681 169.556 124.458 173.727 127.578 178.003M154.557 141.216C156.104 145.989 159.326 156.382 160.845 162.903C162.799 171.292 161.682 187.51 161.682 189.747C161.682 191.984 158.054 197.297 155.263 197.856C152.472 198.415 149.681 196.178 148.285 196.178C144.936 197.017 134.888 193.941 132.376 186.392C131.558 183.931 129.723 180.942 127.578 178.003M140.749 105.58C138.144 108.842 132.599 116.877 131.26 122.917C129.92 128.957 126.05 137.364 124.282 140.813M131.26 131.585C136.377 128.882 146.722 122.693 147.169 119.561M144.936 117.044C143.261 119.561 139.354 124.874 137.121 125.992" stroke="white"/>
</svg>
