<svg width="243" height="150" viewBox="0 0 243 150" fill="none" xmlns="http://www.w3.org/2000/svg">
<path d="M0.5 128.461V3C0.5 2.44772 0.94771 2 1.5 2H241.5C242.052 2 242.5 2.44771 242.5 3V128.461M0.5 128.461V131.16C0.5 131.713 0.947715 132.16 1.5 132.16H22.3699M0.5 128.461H242.5M242.5 128.461V131.16C242.5 131.713 242.052 132.16 241.5 132.16H219.812M219.812 132.16L234.957 146.374C235.078 146.488 235.129 146.648 234.976 146.712C234.545 146.893 233.202 147.073 229.937 146.97C229.734 146.963 229.537 146.895 229.374 146.773C226.147 144.36 220.655 140.159 217.769 137.662M219.812 132.16H215.725H214.703M215.929 135.86C216.13 136.183 216.804 136.827 217.769 137.662M214.703 132.16C214.703 134.378 214.797 138.786 215.148 140.737C215.222 141.147 215.593 141.41 216.01 141.41H216.769C217.321 141.41 217.769 140.962 217.769 140.41V137.662M214.703 132.16H27.8885M26.049 136.477L24.0868 137.915M22.3699 132.16V132.527C22.3699 132.816 22.2475 133.089 22.0292 133.279C17.6588 137.086 10.0339 143.843 7.84691 146.177C7.46933 146.58 7.69265 146.959 8.24493 146.959H11.8143C12.0323 146.959 12.2444 146.888 12.4182 146.756L24.0868 137.915M22.3699 132.16H27.8885M27.8885 132.16L27.1516 140.498C27.1059 141.014 26.6736 141.41 26.1554 141.41H25.175C24.6363 141.41 24.1945 140.983 24.1756 140.445L24.0868 137.915" stroke="white" stroke-linecap="round" stroke-linejoin="round"/>
<rect x="2.5" y="3" width="238" height="125" fill="#444242"/>
<path d="M12.0004 21.0284C11.436 20.0876 11.436 18.9124 12.0004 17.9716V17.9716C12.1727 17.6845 12.458 17.4834 12.7863 17.4177L14.1266 17.1497C14.2065 17.1337 14.2785 17.0909 14.3306 17.0283L15.3792 15.77C16.5618 14.3509 17.1531 13.6414 17.6807 13.8324C18.2084 14.0235 18.2084 14.9471 18.2084 16.7943L18.2084 22.2057C18.2084 24.0529 18.2084 24.9765 17.6807 25.1676C17.1531 25.3586 16.5618 24.6491 15.3792 23.23L14.3306 21.9717C14.2785 21.9091 14.2065 21.8663 14.1266 21.8503L12.7863 21.5823C12.458 21.5166 12.1727 21.3155 12.0004 21.0284V21.0284Z" stroke="white"/>
<path d="M21.7989 16.7011C22.5374 17.4396 22.9541 18.4401 22.9583 19.4845C22.9624 20.5289 22.5536 21.5326 21.8209 22.2769" stroke="white" stroke-linecap="round"/>
<path d="M25.0617 15.0217C26.2433 16.2034 26.91 17.8041 26.9166 19.4751C26.9232 21.1462 26.2691 22.7521 25.0968 23.943" stroke="white" stroke-linecap="round"/>
</svg>
