<svg width="243" height="151" viewBox="0 0 243 151" fill="none" xmlns="http://www.w3.org/2000/svg">
<path d="M0.5 127.461V2C0.5 1.44772 0.94771 1 1.5 1H241.5C242.052 1 242.5 1.44771 242.5 2V127.461M0.5 127.461V130.16C0.5 130.713 0.947715 131.16 1.5 131.16H22.3699M0.5 127.461H242.5M242.5 127.461V130.16C242.5 130.713 242.052 131.16 241.5 131.16H219.812M219.812 131.16L234.957 145.374C235.078 145.488 235.129 145.648 234.976 145.712C234.545 145.893 233.202 146.073 229.937 145.97C229.734 145.963 229.537 145.895 229.374 145.773C226.147 143.36 220.655 139.159 217.769 136.662M219.812 131.16H215.725H214.703M215.929 134.86C216.13 135.183 216.804 135.827 217.769 136.662M214.703 131.16C214.703 133.378 214.797 137.786 215.148 139.737C215.222 140.147 215.593 140.41 216.01 140.41H216.769C217.321 140.41 217.769 139.962 217.769 139.41V136.662M214.703 131.16H27.8885M26.049 135.477L24.0868 136.915M22.3699 131.16V131.527C22.3699 131.816 22.2475 132.089 22.0292 132.279C17.6588 136.086 10.0339 142.843 7.84691 145.177C7.46933 145.58 7.69265 145.959 8.24493 145.959H11.8143C12.0323 145.959 12.2444 145.888 12.4182 145.756L24.0868 136.915M22.3699 131.16H27.8885M27.8885 131.16L27.1516 139.498C27.1059 140.014 26.6736 140.41 26.1554 140.41H25.175C24.6363 140.41 24.1945 139.983 24.1756 139.445L24.0868 136.915" stroke="white" stroke-linecap="round" stroke-linejoin="round"/>
<rect x="1.5" y="2" width="241" height="125" fill="black"/>
</svg>
