<svg width="245" height="151" viewBox="0 0 245 151" fill="none" xmlns="http://www.w3.org/2000/svg">
<path d="M1 127.461V2C1 1.44772 1.44771 1 2 1H243C243.552 1 244 1.44771 244 2V127.461M1 127.461V130.16C1 130.713 1.44772 131.16 2 131.16H22.9603M1 127.461H244M244 127.461V130.16C244 130.713 243.552 131.16 243 131.16H221.219M221.219 131.16L236.426 145.374C236.548 145.488 236.599 145.648 236.445 145.712C236.013 145.893 234.664 146.073 231.383 145.97C231.181 145.963 230.984 145.895 230.822 145.774C227.581 143.362 222.065 139.159 219.166 136.662M221.219 131.16H217.114H216.088M217.319 134.86C217.521 135.183 218.198 135.827 219.166 136.662M216.088 131.16C216.088 133.378 216.182 137.788 216.536 139.738C216.61 140.148 216.98 140.41 217.397 140.41H218.166C218.719 140.41 219.166 139.962 219.166 139.41V136.662M216.088 131.16H28.5017M26.6546 135.477L24.6843 136.915M22.9603 131.16V131.526C22.9603 131.816 22.8372 132.089 22.6181 132.279C18.2288 136.087 10.5707 142.845 8.37616 145.178C7.99779 145.581 8.22052 145.959 8.7728 145.959H12.3635C12.5809 145.959 12.7923 145.888 12.9658 145.757L24.6843 136.915M22.9603 131.16H28.5017M28.5017 131.16L27.7617 139.498C27.7159 140.014 27.2836 140.41 26.7656 140.41H25.7728C25.2342 140.41 24.7924 139.983 24.7734 139.445L24.6843 136.915" stroke="white" stroke-linecap="round" stroke-linejoin="round"/>
<rect x="1" y="2" width="243" height="125" fill="black"/>
<path d="M119.88 74.7H122L122 78.7066L122 78.7397C122 79.0734 122 79.3703 122.027 79.5884C122.04 79.7005 122.066 79.8391 122.128 79.9668C122.199 80.1103 122.33 80.2648 122.549 80.3257C122.767 80.3866 122.96 80.3225 123.094 80.2361C123.214 80.1592 123.307 80.0537 123.377 79.9648C123.512 79.792 123.666 79.5379 123.839 79.2523L123.856 79.2239L127.26 73.5934L127.282 73.5574C127.67 72.9157 127.99 72.3854 128.172 71.9513C128.358 71.506 128.459 71.0226 128.2 70.5631C127.941 70.1037 127.475 69.9398 126.998 69.869C126.532 69.8 125.912 69.8 125.163 69.8L125.12 69.8H123V65.7934L123 65.7603C123 65.4266 123 65.1297 122.973 64.9116C122.96 64.7995 122.934 64.6609 122.872 64.5332C122.801 64.3897 122.67 64.2352 122.451 64.1743C122.233 64.1134 122.04 64.1775 121.906 64.2639C121.786 64.3408 121.693 64.4463 121.623 64.5352C121.488 64.7081 121.334 64.9621 121.161 65.2477L121.144 65.2761L117.74 70.9066L117.718 70.9426C117.33 71.5843 117.01 72.1146 116.828 72.5487C116.642 72.994 116.541 73.4774 116.8 73.9369C117.059 74.3963 117.525 74.5602 118.002 74.631C118.468 74.7 119.088 74.7 119.837 74.7H119.88Z" stroke="white"/>
<path fill-rule="evenodd" clip-rule="evenodd" d="M122.5 53C119.186 53 116.324 54.9158 115.029 57.6827C114.663 58.4641 113.983 59 113.25 59C110.433 59 108.125 61.2258 108.125 64C108.125 66.2557 109.651 68.1488 111.735 68.7777C111.755 68.3867 111.789 68.0539 111.848 67.7636C110.255 67.2057 109.125 65.7238 109.125 64C109.125 61.8037 110.959 60 113.25 60C114.493 60 115.462 59.1148 115.934 58.1067C117.066 55.6887 119.577 54 122.5 54C125.21 54 127.566 55.4512 128.797 57.59C129.514 58.8352 130.767 60 132.375 60C134.308 60 135.875 61.567 135.875 63.5V64.5C135.875 66.1566 134.724 67.5443 133.178 67.9074C133.227 68.1967 133.255 68.5267 133.271 68.9108C135.327 68.4955 136.875 66.6786 136.875 64.5V63.5C136.875 61.0147 134.86 59 132.375 59C131.279 59 130.296 58.1894 129.663 57.0911C128.256 54.6467 125.573 53 122.5 53Z" fill="white"/>
</svg>
