<svg width="121" height="20" viewBox="0 0 121 20" fill="none" xmlns="http://www.w3.org/2000/svg">
<path d="M9.65077 1.36587C10.042 0.736559 10.958 0.73656 11.3492 1.36587L13.6357 5.04327C13.7733 5.26469 13.992 5.42358 14.2452 5.48609L18.4491 6.52424C19.1685 6.7019 19.4516 7.57298 18.974 8.13958L16.1831 11.4505C16.0151 11.6498 15.9315 11.9069 15.9503 12.167L16.2621 16.486C16.3154 17.2251 15.5744 17.7635 14.888 17.4843L10.8767 15.8532C10.6352 15.755 10.3648 15.755 10.1233 15.8532L6.11203 17.4843C5.42558 17.7635 4.68459 17.2251 4.73794 16.486L5.0497 12.167C5.06847 11.9069 4.98494 11.6498 4.8169 11.4505L2.02603 8.13958C1.54843 7.57298 1.83146 6.7019 2.55089 6.52424L6.75484 5.48609C7.00797 5.42358 7.22667 5.26469 7.36434 5.04327L9.65077 1.36587Z" fill="#F7BC04"/>
<path d="M34.6508 1.36587C35.042 0.736559 35.958 0.73656 36.3492 1.36587L38.6357 5.04327C38.7733 5.26469 38.992 5.42358 39.2452 5.48609L43.4491 6.52424C44.1685 6.7019 44.4516 7.57298 43.974 8.13958L41.1831 11.4505C41.0151 11.6498 40.9315 11.9069 40.9503 12.167L41.2621 16.486C41.3154 17.2251 40.5744 17.7635 39.888 17.4843L35.8767 15.8532C35.6352 15.755 35.3648 15.755 35.1233 15.8532L31.112 17.4843C30.4256 17.7635 29.6846 17.2251 29.7379 16.486L30.0497 12.167C30.0685 11.9069 29.9849 11.6498 29.8169 11.4505L27.026 8.13958C26.5484 7.57298 26.8315 6.7019 27.5509 6.52424L31.7548 5.48609C32.008 5.42358 32.2267 5.26469 32.3643 5.04327L34.6508 1.36587Z" fill="#F7BC04"/>
<path d="M59.6508 1.36587C60.042 0.736559 60.958 0.73656 61.3492 1.36587L63.6357 5.04327C63.7733 5.26469 63.992 5.42358 64.2452 5.48609L68.4491 6.52424C69.1685 6.7019 69.4516 7.57298 68.974 8.13958L66.1831 11.4505C66.0151 11.6498 65.9315 11.9069 65.9503 12.167L66.2621 16.486C66.3154 17.2251 65.5744 17.7635 64.888 17.4843L60.8767 15.8532C60.6352 15.755 60.3648 15.755 60.1233 15.8532L56.112 17.4843C55.4256 17.7635 54.6846 17.2251 54.7379 16.486L55.0497 12.167C55.0685 11.9069 54.9849 11.6498 54.8169 11.4505L52.026 8.13958C51.5484 7.57298 51.8315 6.7019 52.5509 6.52424L56.7548 5.48609C57.008 5.42358 57.2267 5.26469 57.3643 5.04327L59.6508 1.36587Z" fill="#F7BC04"/>
<path d="M84.6508 1.36587C85.042 0.736559 85.958 0.73656 86.3492 1.36587L88.6357 5.04327C88.7733 5.26469 88.992 5.42358 89.2452 5.48609L93.4491 6.52424C94.1685 6.7019 94.4516 7.57298 93.974 8.13958L91.1831 11.4505C91.0151 11.6498 90.9315 11.9069 90.9503 12.167L91.2621 16.486C91.3154 17.2251 90.5744 17.7635 89.888 17.4843L85.8767 15.8532C85.6352 15.755 85.3648 15.755 85.1233 15.8532L81.112 17.4843C80.4256 17.7635 79.6846 17.2251 79.7379 16.486L80.0497 12.167C80.0685 11.9069 79.9849 11.6498 79.8169 11.4505L77.026 8.13958C76.5484 7.57298 76.8315 6.7019 77.5509 6.52424L81.7548 5.48609C82.008 5.42358 82.2267 5.26469 82.3643 5.04327L84.6508 1.36587Z" fill="#F7BC04"/>
<path d="M109.651 1.36587C110.042 0.736559 110.958 0.73656 111.349 1.36587L113.636 5.04327C113.773 5.26469 113.992 5.42358 114.245 5.48609L118.449 6.52424C119.169 6.7019 119.452 7.57298 118.974 8.13958L116.183 11.4505C116.015 11.6498 115.932 11.9069 115.95 12.167L116.262 16.486C116.315 17.2251 115.574 17.7635 114.888 17.4843L110.877 15.8532C110.635 15.755 110.365 15.755 110.123 15.8532L106.112 17.4843C105.426 17.7635 104.685 17.2251 104.738 16.486L105.05 12.167C105.068 11.9069 104.985 11.6498 104.817 11.4505L102.026 8.13958C101.548 7.57298 101.831 6.7019 102.551 6.52424L106.755 5.48609C107.008 5.42358 107.227 5.26469 107.364 5.04327L109.651 1.36587Z" fill="#F7BC04"/>
</svg>
