<svg width="36" height="36" viewBox="0 0 36 36" fill="none" xmlns="http://www.w3.org/2000/svg">
<path d="M0 36L2.54441 26.7605C0.971346 24.0485 0.146132 20.9772 0.154728 17.8375C0.154728 7.99905 8.20057 0 18.0774 0C22.8739 0 27.3782 1.85646 30.7564 5.22719C34.1432 8.59791 36.0086 13.0808 36 17.846C36 27.6844 27.9541 35.6835 18.0688 35.6835H18.0602C15.0602 35.6835 12.1117 34.9306 9.48996 33.5105L0 36ZM9.94555 30.2852L10.4871 30.6103C12.7736 31.962 15.3954 32.6721 18.0688 32.6806H18.0774C26.2865 32.6806 32.9742 26.0333 32.9742 17.8546C32.9742 13.8935 31.4269 10.1721 28.616 7.36597C25.8051 4.55989 22.0573 3.01996 18.0774 3.01996C9.86819 3.01141 3.18051 9.65875 3.18051 17.8375C3.18051 20.635 3.96275 23.3641 5.45845 25.7253L5.81088 26.2899L4.30659 31.7567L9.94555 30.2852Z" fill="white"/>
<path d="M0 36L2.54441 26.7605C0.971346 24.0485 0.146132 20.9772 0.154728 17.8375C0.154728 7.99905 8.20057 0 18.0774 0C22.8739 0 27.3782 1.85646 30.7564 5.22719C34.1432 8.59791 36.0086 13.0808 36 17.846C36 27.6844 27.9541 35.6835 18.0688 35.6835H18.0602C15.0602 35.6835 12.1117 34.9306 9.48996 33.5105L0 36ZM9.94555 30.2852L10.4871 30.6103C12.7736 31.962 15.3954 32.6721 18.0688 32.6806H18.0774C26.2865 32.6806 32.9742 26.0333 32.9742 17.8546C32.9742 13.8935 31.4269 10.1721 28.616 7.36597C25.8051 4.55989 22.0573 3.01996 18.0774 3.01996C9.86819 3.01141 3.18051 9.65875 3.18051 17.8375C3.18051 20.635 3.96275 23.3641 5.45845 25.7253L5.81088 26.2899L4.30659 31.7567L9.94555 30.2852Z" fill="url(#paint0_linear_789_878)"/>
<path fill-rule="evenodd" clip-rule="evenodd" d="M13.5983 10.3772C13.263 9.63285 12.9106 9.61574 12.5925 9.60719C12.3347 9.59863 12.0338 9.59863 11.7329 9.59863C11.4321 9.59863 10.9507 9.70985 10.5381 10.1547C10.1255 10.5996 8.97363 11.6775 8.97363 13.8762C8.97363 16.0663 10.5811 18.188 10.8046 18.4874C11.0281 18.7868 13.9077 23.4323 18.455 25.2203C22.2372 26.7089 23.0109 26.4095 23.8275 26.3325C24.6441 26.2555 26.4751 25.2545 26.8533 24.2108C27.2229 23.1671 27.2229 22.2773 27.1112 22.0891C26.9994 21.9009 26.6985 21.7897 26.2516 21.5673C25.8046 21.3448 23.604 20.2669 23.1914 20.1129C22.7788 19.9675 22.4779 19.8905 22.1857 20.3353C21.8848 20.7802 21.0252 21.7811 20.7673 22.0806C20.5094 22.38 20.243 22.4142 19.796 22.1918C19.349 21.9694 17.9049 21.4988 16.1943 19.976C14.8619 18.7954 13.9593 17.3325 13.7014 16.8876C13.4435 16.4427 13.6756 16.2032 13.8991 15.9808C14.0968 15.784 14.3461 15.4589 14.5696 15.2022C14.7931 14.9456 14.8705 14.7574 15.0166 14.4579C15.1627 14.1585 15.094 13.9019 14.9822 13.6794C14.8705 13.4656 13.9937 11.2583 13.5983 10.3772Z" fill="url(#paint1_linear_789_878)"/>
<defs>
<linearGradient id="paint0_linear_789_878" x1="17.9991" y1="35.9982" x2="17.9991" y2="-0.00125955" gradientUnits="userSpaceOnUse">
<stop stop-color="#20B038"/>
<stop offset="1" stop-color="#60D66A"/>
</linearGradient>
<linearGradient id="paint1_linear_789_878" x1="18.0745" y1="26.4083" x2="18.0745" y2="9.59804" gradientUnits="userSpaceOnUse">
<stop stop-color="#20B038"/>
<stop offset="1" stop-color="#60D66A"/>
</linearGradient>
</defs>
</svg>
